<?xml version="1.0" encoding="UTF-8"?>
<!DOCTYPE svg PUBLIC "-//W3C//DTD SVG 1.1//EN" "http://www.w3.org/Graphics/SVG/1.1/DTD/svg11.dtd">
<!-- Creator: CorelDRAW X7 -->
<svg xmlns="http://www.w3.org/2000/svg" xml:space="preserve" width="1.01153in" height="0.564476in" version="1.1" style="shape-rendering:geometricPrecision; text-rendering:geometricPrecision; image-rendering:optimizeQuality; fill-rule:evenodd; clip-rule:evenodd"
viewBox="0 0 1272 710"
 xmlns:xlink="http://www.w3.org/1999/xlink">
 <defs>
  <style type="text/css">
   <![CDATA[
    .fil0 {fill:white}
   ]]>
  </style>
 </defs>
 <g id="Layer_x0020_1">
  <metadata id="CorelCorpID_0Corel-Layer"/>
  <rect class="fil0" x="384" y="339" width="503.658" height="31.2515" rx="34" ry="16"/>
  <path class="fil0" d="M829 72c8,9 13,22 13,36 0,28 -20,50 -45,50 0,0 -36,-18 -41,-20 -140,-66 -398,158 -756,158l0 -164 308 0c140,-155 352,-172 521,-60z"/>
  <path class="fil0" d="M443 637c-8,-9 -13,-21 -13,-35 0,-28 20,-51 45,-51 0,0 36,19 40,21 141,65 399,-158 757,-158l0 163 -308 0c-140,156 -352,172 -521,60z"/>
 </g>
</svg>
