<?xml version="1.0" encoding="UTF-8"?>
<!DOCTYPE svg PUBLIC "-//W3C//DTD SVG 1.1//EN" "http://www.w3.org/Graphics/SVG/1.1/DTD/svg11.dtd">
<!-- Creator: CorelDRAW X7 -->
<svg xmlns="http://www.w3.org/2000/svg" xml:space="preserve" width="1.97in" height="2.98in" version="1.1" style="shape-rendering:geometricPrecision; text-rendering:geometricPrecision; image-rendering:optimizeQuality; fill-rule:evenodd; clip-rule:evenodd"
viewBox="0 0 252 381"
 xmlns:xlink="http://www.w3.org/1999/xlink">
 <defs>
  <style type="text/css">
   <![CDATA[
    .fil0 {fill:#2980B9}
    .fil1 {fill:#3498DB}
    .fil3 {fill:#CCCCCC}
    .fil2 {fill:#E6E6E6}
   ]]>
  </style>
 </defs>
 <g id="Layer_x0020_1">
  <metadata id="CorelCorpID_0Corel-Layer"/>
  <rect class="fil0" width="252" height="381" rx="9" ry="16"/>
  <rect class="fil1" x="11" y="136" width="230" height="108" rx="6" ry="6"/>
  <g id="_293429112">
   <path class="fil2" d="M162 183l1 4c0,2 1,4 1,6 1,2 1,4 -1,6 -1,1 -4,2 -7,2 -5,0 -10,0 -15,0 -5,0 -10,0 -15,0 -5,0 -10,0 -15,0 -5,0 -10,0 -15,0 -3,0 -5,-1 -7,-2 -2,-2 -2,-4 -1,-6 0,-2 1,-4 1,-6l1 -3c0,-1 0,-1 0,-2 0,-3 3,-5 5,-5 3,0 6,2 6,5 0,2 -1,3 -3,4l0 1c0,2 1,4 2,5 2,2 4,3 7,3 6,0 13,0 19,0 6,0 13,0 19,0 3,0 5,-1 7,-3 2,-1 2,-3 2,-5l-1 -2c-1,-1 -1,-2 -1,-4 0,-3 2,-5 5,-5 3,0 5,2 5,5 0,1 0,2 0,2z"/>
   <path class="fil3" d="M87 195l0 0c1,2 1,3 2,4 2,1 4,2 7,2 5,0 10,0 15,0 5,0 10,0 15,0 5,0 10,0 15,0 5,0 10,0 15,0 3,0 6,-1 7,-2 1,-1 2,-2 2,-4l0 0 0 5c0,3 -2,5 -5,5l-68 0c-3,0 -5,-2 -5,-5l0 -5z"/>
  </g>
  <rect class="fil1" x="11" y="18" width="230" height="108" rx="6" ry="6"/>
  <g id="_293430312">
   <path class="fil2" d="M162 65l1 4c0,2 1,3 1,5 1,3 1,5 -1,6 -1,2 -4,3 -7,3 -5,0 -10,0 -15,0 -5,0 -10,0 -15,0 -5,0 -10,0 -15,0 -5,0 -10,0 -15,0 -3,0 -5,-1 -7,-3 -2,-1 -2,-3 -1,-6 0,-2 1,-3 1,-5l1 -3c0,-1 0,-1 0,-2 0,-3 3,-5 5,-5 3,0 6,2 6,5 0,2 -1,3 -3,4l0 1c0,2 1,4 2,5 2,2 4,2 7,2 6,0 13,0 19,0 6,0 13,0 19,0 3,0 5,0 7,-2 2,-1 2,-3 2,-5l-1 -2c-1,-1 -1,-2 -1,-4 0,-3 2,-5 5,-5 3,0 5,2 5,5 0,1 0,2 0,2z"/>
   <path class="fil3" d="M87 77l0 0c1,1 1,3 2,3 2,2 4,3 7,3 5,0 10,0 15,0 5,0 10,0 15,0 5,0 10,0 15,0 5,0 10,0 15,0 3,0 6,-1 7,-3 1,0 2,-2 2,-3l0 0 0 5c0,2 -2,5 -5,5l-68 0c-3,0 -5,-3 -5,-5l0 -5z"/>
  </g>
  <rect class="fil1" x="11" y="255" width="230" height="108" rx="6" ry="6"/>
  <g id="_293430912">
   <path class="fil2" d="M162 302l1 3c0,2 1,4 1,6 1,2 1,5 -1,6 -1,2 -4,3 -7,3 -5,0 -10,0 -15,0 -5,0 -10,0 -15,0 -5,0 -10,0 -15,0 -5,0 -10,0 -15,0 -3,0 -5,-1 -7,-3 -2,-1 -2,-4 -1,-6 0,-2 1,-4 1,-6l1 -3c0,0 0,-1 0,-1 0,-3 3,-6 5,-6 3,0 6,3 6,6 0,1 -1,3 -3,4l0 0c0,2 1,4 2,6 2,1 4,2 7,2 6,0 13,0 19,0 6,0 13,0 19,0 3,0 5,-1 7,-2 2,-2 2,-4 2,-6l-1 -1c-1,-1 -1,-3 -1,-4 0,-3 2,-5 5,-5 3,0 5,2 5,5 0,1 0,1 0,2z"/>
   <path class="fil3" d="M87 314l0 0c1,1 1,2 2,3 2,2 4,3 7,3 5,0 10,0 15,0 5,0 10,0 15,0 5,0 10,0 15,0 5,0 10,0 15,0 3,0 6,-1 7,-3 1,-1 2,-2 2,-3l0 0 0 5c0,2 -2,4 -5,4l-68 0c-3,0 -5,-2 -5,-4l0 -5z"/>
  </g>
 </g>
</svg>
