<?xml version="1.0" encoding="UTF-8"?>
<!DOCTYPE svg PUBLIC "-//W3C//DTD SVG 1.0//EN" "http://www.w3.org/TR/2001/REC-SVG-20010904/DTD/svg10.dtd">
<!-- Creator: CorelDRAW X7 -->
<svg xmlns="http://www.w3.org/2000/svg" xml:space="preserve" width="4.67246in" height="5.40788in" version="1.0" style="shape-rendering:geometricPrecision; text-rendering:geometricPrecision; image-rendering:optimizeQuality; fill-rule:evenodd; clip-rule:evenodd"
viewBox="0 0 3361 3890"
 xmlns:xlink="http://www.w3.org/1999/xlink">
 <defs>
  <style type="text/css">
   <![CDATA[
    .fil6 {fill:#007CBA}
    .fil1 {fill:#007CBA}
    .fil0 {fill:#2B9AD2}
    .fil3 {fill:#CC6D00}
    .fil4 {fill:#F7901B}
    .fil2 {fill:#FAC282}
    .fil5 {fill:#FFB35C}
   ]]>
  </style>
 </defs>
 <g id="Layer_x0020_1">
  <metadata id="CorelCorpID_0Corel-Layer"/>
  <g id="_375659856">
   <path class="fil0" d="M1774 109l734 424 720 415c96,56 116,73 116,185l0 847 0 832c0,111 -6,137 -102,192l-734 424 -720 416c-97,56 -121,64 -218,8l-734 -424 -720 -415c-97,-56 -116,-73 -116,-185l0 -848 0 -831c0,-111 5,-137 102,-193l734 -423 720 -416c96,-56 121,-64 218,-8z"/>
   <path class="fil1" d="M1774 109l734 424 720 415c73,43 102,63 111,119 -8,48 -31,72 -97,110l-734 424 -720 415c-97,56 -121,64 -218,9l-734 -424 -720 -416c-73,-42 -102,-62 -112,-119 8,-47 31,-71 98,-110l734 -423 720 -416c96,-56 121,-64 218,-8z"/>
   <path class="fil0" d="M1774 109l734 424 720 415c73,43 102,63 111,119 -8,48 -31,72 -97,110l-734 424 -720 415c-50,29 -80,45 -112,47l0 -1992c27,1 56,13 98,38z"/>
   <path class="fil2" d="M1826 11l1366 652c158,74 192,149 156,263l-563 1452 -1708 -832c185,-456 378,-1009 584,-1443 34,-73 91,-127 165,-92z"/>
   <path class="fil3" d="M691 648l0 332 0 344 484 279 720 415c52,31 84,47 117,47l0 643 235 135c53,31 84,47 117,46l0 -1274c0,-115 -24,-167 -111,-223l-726 -419 -735 -424c-88,-51 -101,-1 -101,99z"/>
   <path class="fil4" d="M393 594l0 489 0 161 622 359 720 415c53,31 84,47 118,47l0 826 96 56c53,30 84,46 117,46l0 -1274c0,-116 -24,-168 -111,-223l-726 -420 -836 -482z"/>
   <path class="fil5" d="M55 603l0 544c13,10 29,20 50,32l734 424 719 415c53,31 85,47 118,47l0 1014c19,8 35,12 52,12l0 -1275c0,-126 -29,-176 -137,-238l-538 -311 0 -146c0,-121 -49,-173 -159,-237l-731 -422c-108,-54 -108,15 -108,141z"/>
   <path class="fil6" d="M3339 1067c4,17 5,39 5,66l0 847 0 832c0,111 -6,137 -102,192l-734 424 -720 416c-53,30 -84,47 -118,46l0 -1827c34,0 65,-16 118,-47l720 -415 734 -424c66,-38 89,-62 97,-110l0 -1 0 0 0 1z"/>
  </g>
 </g>
</svg>
