<?xml version="1.0" encoding="UTF-8"?>
<!DOCTYPE svg PUBLIC "-//W3C//DTD SVG 1.0//EN" "http://www.w3.org/TR/2001/REC-SVG-20010904/DTD/svg10.dtd">
<!-- Creator: CorelDRAW X7 -->
<svg xmlns="http://www.w3.org/2000/svg" xml:space="preserve" width="8.75888in" height="8.76574in" version="1.0" style="shape-rendering:geometricPrecision; text-rendering:geometricPrecision; image-rendering:optimizeQuality; fill-rule:evenodd; clip-rule:evenodd"
viewBox="0 0 9625 9632"
 xmlns:xlink="http://www.w3.org/1999/xlink">
 <defs>
  <style type="text/css">
   <![CDATA[
    .str0 {stroke:black;stroke-width:7.63125}
    .fil4 {fill:none}
    .fil3 {fill:#333333}
    .fil1 {fill:#CFCFCF}
    .fil0 {fill:#D5D5D5}
    .fil2 {fill:#CFCFCF;fill-rule:nonzero}
   ]]>
  </style>
 </defs>
 <g id="Layer_x0020_1">
  <metadata id="CorelCorpID_0Corel-Layer"/>
  <g id="_342074496">
   <rect class="fil0" y="4807" width="4825" height="4825"/>
   <path class="fil1" d="M2580 5992l0 952c0,25 -6,18 -42,18 -119,0 -926,3 -959,-1 -4,-33 11,-36 29,-53l28 -29c0,0 1,0 1,-1l55 -55c0,0 1,-1 1,-1l45 -45c29,-26 62,-62 91,-91 0,0 1,-1 1,-1 1,-1 4,-4 4,-4l231 -230c3,-4 6,-6 9,-9l134 -135c2,-2 5,-5 8,-7l8 -8c3,-3 5,-5 8,-9l64 -64c3,-2 5,-4 8,-7 0,-1 1,-1 1,-2l35 -34c2,-3 1,-2 3,-4l56 -55c19,-23 64,-64 88,-88l51 -52c10,-10 22,-23 37,-12 7,5 6,17 5,27zm-864 942c0,-14 -2,-27 3,-40 21,-2 14,10 16,38l18 0c1,-19 -5,-26 7,-39 6,5 5,-6 5,7 4,7 2,24 2,35l23 -1 1 -38c14,6 8,17 10,39l21 -2c1,-12 1,-25 0,-37 0,-6 0,-13 0,-18 0,-4 0,-7 1,-10 1,-6 1,-4 3,-7 4,6 4,7 4,19l0 54 21 0c1,-12 -3,-29 3,-39 10,1 8,4 8,16 0,8 -1,15 0,24l23 0c1,-9 0,-16 1,-24 0,-11 1,-9 7,-15 8,11 2,14 3,28 2,15 6,11 23,11 0,-8 -3,-51 8,-37 6,6 2,17 3,26 1,15 6,11 22,11 1,-16 1,-31 1,-47 0,-16 -6,-30 10,-29 4,64 -12,79 19,75 1,-16 -1,-25 4,-41l15 2 0 38 18 0c0,-33 -5,-28 5,-32 2,-5 -1,-3 4,-5 6,13 3,21 4,38l24 0 2 -37 9 1 1 37 22 -3c0,-12 1,-24 0,-36 0,-13 -2,-27 5,-35 0,1 1,2 1,2 0,1 1,2 1,3l2 68 18 -1 1 -27c1,-6 0,-3 2,-7 10,8 4,12 6,35l25 0c0,-7 0,-13 0,-21 1,-14 -2,-9 5,-13 8,5 6,3 6,16 0,6 0,11 0,18l22 0 2 -39 9 3 1 37 21 -2c1,-17 -5,-62 3,-73 8,4 5,3 6,15l0 59 20 0c0,-7 0,-14 0,-21 0,-13 -2,-9 5,-13 9,5 4,14 6,34l23 1c1,-18 -5,-38 11,-38l1 37 21 1c2,-18 -5,-38 11,-38l1 37c30,2 23,0 23,-30 0,-35 -4,-41 8,-44 6,12 2,56 3,74l22 0c2,-35 -5,-29 8,-36 5,9 2,25 3,37l26 -2c1,-17 -3,-37 7,-36 8,4 4,28 4,38l22 -1 3 -38c13,6 7,20 9,39 30,0 22,-4 22,-37 0,-26 -5,-42 10,-41l1 78 49 -1c1,-15 2,-60 -1,-72 -11,-1 -26,2 -35,-5 7,-4 6,-3 16,-3 3,0 12,0 14,-1 9,-3 7,-13 6,-24 -18,-3 -36,5 -37,-11l38 -3 0 -20c-20,-4 -30,4 -34,-7 5,-9 14,0 35,-6l-1 -20c-25,-2 -63,4 -73,-4l11 -4c45,-4 63,16 61,-20l-36 -2c3,-9 2,-9 13,-9 9,-1 14,0 24,-1l0 -21c-26,-6 -31,4 -36,-7 4,-10 11,-4 36,-6l0 -20c-30,-5 -37,6 -38,-12l38 -1 -1 -21 -66 -1c-8,-3 -3,2 -6,-6 4,-7 -1,-5 13,-5 6,-1 15,0 21,0 13,0 26,1 38,-1 1,-27 -2,-19 -23,-20 -14,-1 -10,0 -13,-7 5,-9 15,-3 36,-6l0 -21c-18,-2 -37,3 -37,-6 0,-11 23,-4 38,-8l0 -19c-20,-4 -30,3 -35,-7 4,-8 16,-4 35,-5l-1 -22c-12,-1 -25,-1 -38,-1 -30,0 -30,4 -34,-5 3,-6 -1,-2 6,-5 7,-2 49,3 67,-2l0 -14c-9,-1 -11,0 -19,0 -7,-1 -11,-1 -16,-5 9,-5 23,-2 35,-4l0 -24c-8,-2 -11,-2 -19,-2 -17,0 -14,-2 -15,-5 4,-8 15,-4 34,-6l-1 -21 -37 -3c5,-13 20,-7 38,-9l-1 -18c-13,-1 -27,-1 -41,-1 -34,0 -27,4 -31,-6 11,-8 50,0 73,-5l0 -19c-14,-1 -32,1 -34,-5 0,-14 5,-3 33,-8l0 -20c-10,-2 -29,2 -37,-5l0 -5c9,-6 26,-2 37,-4 1,-14 5,-19 -7,-21 -4,-1 -12,0 -16,0 -17,-1 -8,1 -10,-6 4,-8 25,-4 33,-5 2,-29 -2,-23 -30,-22 -8,0 -45,4 -45,-6 0,-9 67,-4 75,-5 1,-16 5,-22 -10,-23 -10,0 -18,3 -27,-3 3,-12 20,-6 38,-7l-1 -23c-15,-1 -29,4 -34,-6 4,-6 -5,-3 11,-5 4,0 12,1 16,0 11,-2 8,-9 7,-22 -17,-1 -29,5 -33,-6 3,-6 -1,-2 6,-4 8,-3 18,-1 28,-2l-1 -21c-12,-1 -25,-1 -38,-1 -22,0 -30,5 -34,-5 7,-13 45,1 73,-7l0 -76c-11,0 -13,9 -19,16l-125 125c-8,9 -19,17 -29,28l-198 199c0,0 -1,1 -1,1l-68 68c0,0 -1,1 -1,1l-74 73c-5,5 -10,11 -15,16 0,0 0,0 -1,1l-13 12c-5,5 -10,10 -14,14l-14 15c-6,5 -10,9 -15,15l-206 206c-35,34 -45,42 -79,78 -2,3 -5,6 -7,8 -2,2 -1,1 -4,4l-6 6c-2,2 -1,1 -4,4 -4,3 -4,3 -7,6 -3,3 -5,4 -7,8 -6,8 -2,-2 -5,9l82 -1zm726 -509c0,80 4,377 -4,407 -60,3 -120,1 -179,1l-348 0c-20,-29 3,-34 38,-72l20 -20c6,-7 10,-10 16,-16l260 -260c0,-1 1,-1 1,-2l157 -157c12,-12 13,-13 33,-12 3,10 6,0 6,28l0 103zm-36 373l-442 1 14 -17c0,-1 1,-1 1,-2l65 -65c1,0 1,-1 2,-1l56 -57c0,0 1,0 1,-1l136 -136c0,0 1,-1 1,-1l18 -18c1,-1 2,-2 4,-4 0,0 1,-1 1,-1l4 -4c0,0 1,-1 1,-1l68 -68c1,0 1,-1 2,-1l56 -56c9,-9 6,-8 13,-10 1,17 4,419 -1,442z"/>
   <g>
    <path class="fil1" d="M1056 6322c-32,27 -80,27 -107,-5l-11 -12c-28,-34 -34,-108 -1,-136l10 -9c62,-52 173,108 109,162zm-476 -54c-15,12 -22,20 -41,24 -7,2 -8,2 -15,2l-15 -1c-42,-7 -72,-48 -52,-97 30,-75 129,-129 158,-45 11,32 -2,89 -35,117zm198 -360c-6,-7 -11,-13 -12,-23 0,-39 70,-36 63,3 -4,27 -37,37 -51,20zm-35 -98c-3,-10 -9,-23 -14,-34 -6,-14 -11,-24 -17,-37l-163 -364c-18,-41 -49,-108 -9,-142 10,14 121,271 129,290l64 145c11,25 21,48 33,73 10,22 12,22 -23,69zm-59 64c-25,21 -47,38 -61,60 -17,30 -18,38 -26,65 -3,13 -7,9 -27,16 -92,30 -164,80 -195,174 -11,35 -14,99 16,136 22,25 27,30 60,43 46,18 114,9 153,-24 45,-38 69,-73 82,-129 6,-29 13,-91 -11,-120 -14,-16 -11,-15 -26,-26 7,-10 14,-31 22,-45 15,-27 19,-35 42,-54 20,-17 17,9 61,11 14,1 51,-2 63,1 14,2 18,6 27,19 19,27 31,68 38,98 -10,7 -7,2 -22,15 -81,68 -31,342 158,309 73,-13 116,-83 114,-149 -4,-101 -64,-164 -151,-210 -11,-7 -26,-12 -35,-19 -10,-87 -18,-86 -80,-160 -8,-9 -17,-18 -22,-27 -4,-9 -8,-20 -12,-27l-76 -161c-8,-17 -16,-36 -25,-55 -32,-72 -65,-142 -96,-214 -15,-36 -29,-70 -43,-106 -14,-34 -31,-87 -55,-115 -22,-26 -112,50 -119,102 -6,43 148,378 167,422l79 170z"/>
    <path class="fil1" d="M828 5683c5,8 7,17 11,25 3,8 6,18 11,26l72 -110c58,-87 144,-222 203,-303 10,-15 11,-15 25,-13 4,8 6,9 5,17 -5,39 -126,212 -155,259 -37,60 -83,126 -122,187 -7,11 -8,9 -5,18l37 76c15,-13 134,-198 149,-222 16,-25 33,-50 47,-74 22,-36 124,-196 129,-224 5,-26 -8,-57 -27,-82l-17 -21c-23,-23 -46,-36 -56,-28 -24,20 -88,135 -112,175 -12,19 -183,283 -195,294z"/>
   </g>
   <path class="fil1" d="M775 6756l209 120 205 119c28,15 33,20 33,52l0 242 0 236c0,32 -1,39 -29,55l-209 121 -205 118c-27,16 -34,18 -62,3l-209 -121 -205 -119c-27,-15 -33,-20 -33,-52l0 -241 0 -237c0,-32 2,-39 29,-55l209 -121 205 -118c28,-16 35,-18 62,-2z"/>
   <path class="fil2" d="M780 6747l209 120 0 0 205 119 0 0c15,8 25,14 31,23 6,9 8,20 8,38l0 242 0 236c0,18 -1,28 -6,38 -5,10 -13,17 -29,26l-209 121 0 0 -205 118c-15,9 -24,14 -35,15 -11,0 -21,-3 -37,-13l-209 -120 0 0 -205 -119c-15,-8 -24,-14 -30,-23 -7,-9 -8,-20 -8,-38l0 -241 0 -237c0,-18 0,-28 5,-38 5,-10 13,-17 29,-26l209 -121 0 0 205 -118c15,-9 25,-14 35,-15 12,0 22,4 37,13l0 0zm199 138l-209 -121 0 0c-12,-6 -19,-9 -25,-9 -7,1 -14,5 -27,12l-205 118 0 0 -209 121c-12,7 -18,11 -20,17 -3,6 -4,14 -4,29l0 237 0 241c0,14 1,21 5,26 3,6 11,10 23,18l205 118 0 0 209 121c12,6 19,9 25,9 7,0 15,-5 27,-12l205 -118 0 0 209 -121c12,-7 18,-11 21,-17 3,-6 3,-14 3,-29l0 -236 0 -242c0,-14 -1,-21 -5,-26 -3,-6 -11,-10 -23,-17l0 0 -205 -119 0 0z"/>
   <path class="fil0" d="M775 6756l209 120 205 119c21,12 29,17 32,33 -2,14 -9,21 -28,32l-209 120 -205 119c-27,16 -34,18 -62,2l-209 -121 -205 -118c-21,-12 -29,-18 -32,-34 3,-13 9,-20 28,-31l209 -121 205 -118c28,-16 35,-18 62,-2z"/>
   <path class="fil2" d="M780 6747l209 120 0 0 205 119c12,6 19,11 25,17 7,6 11,13 12,24l0 3c-1,9 -4,16 -10,22l0 0c-5,6 -12,11 -23,17l0 0 -209 120 0 0 -205 119 0 0c-15,8 -24,13 -35,14 -11,1 -21,-3 -37,-12l0 0 -209 -121 0 0 -205 -118 0 0c-11,-6 -19,-11 -25,-17 -7,-7 -10,-14 -12,-24l0 -3c2,-9 4,-16 10,-22l0 0c5,-6 12,-11 23,-17l0 0 209 -121 0 0 205 -118c15,-9 25,-14 35,-15 12,0 22,4 37,13l0 0zm199 138l-209 -121 0 0c-12,-6 -19,-9 -25,-9 -7,1 -14,5 -27,12l-205 118 0 0 -209 121 0 0c-8,5 -14,9 -17,12l0 1c-3,2 -4,5 -5,9 1,5 3,8 6,11 4,4 11,9 20,14l0 0 205 118 0 0 209 121 0 0c12,7 19,10 25,10 7,-1 15,-5 27,-12l0 0 205 -119 0 0 209 -120 0 0c9,-5 14,-9 18,-13l0 0c2,-3 4,-6 5,-10 -2,-4 -3,-8 -6,-11 -4,-4 -11,-8 -21,-13l-205 -119 0 0z"/>
   <path class="fil3" d="M775 6756l209 120 205 119c21,12 29,17 32,33 -2,14 -9,21 -28,32l-209 120 -205 119c-14,8 -23,13 -32,13l0 -567c8,0 16,4 28,11z"/>
   <path class="fil0" d="M790 6728l389 185c45,22 55,43 44,75l-160 414 -486 -237c53,-130 107,-287 166,-411 10,-21 26,-36 47,-26z"/>
   <path class="fil2" d="M794 6718l390 186 0 0c24,12 39,24 47,38 8,14 8,30 2,49l0 1 -160 413 -4 11 -10 -5 -487 -237 -9 -4 4 -9c19,-45 36,-91 54,-138 36,-94 74,-191 113,-274 6,-13 14,-24 25,-30 11,-6 22,-7 35,-1l0 0zm381 205l-390 -186 1 0c-7,-3 -12,-3 -17,0 -6,4 -12,12 -17,21 -39,82 -76,179 -112,273 -17,45 -34,89 -50,129l468 227 156 -402 0 0c4,-13 4,-24 -1,-33 -6,-10 -18,-20 -38,-29l0 0z"/>
   <path class="fil0" d="M467 6909l0 95 0 98 138 79 205 118c15,9 24,14 33,14l0 183 67 38c15,9 24,14 33,13l0 -362c0,-33 -7,-48 -31,-64l-207 -119 -209 -121c-26,-15 -29,0 -29,28z"/>
   <path class="fil2" d="M477 6909l0 95 0 92 133 76 0 0 205 118c7,4 12,8 17,10 4,1 8,2 11,2l10 0 0 11 0 177 62 35c7,4 13,7 18,10l0 0 0 -350c0,-15 -1,-26 -5,-34 -4,-8 -11,-14 -22,-21l0 0 -206 -119 0 0 -210 -121c-7,-4 -10,-6 -10,-5l0 0c-2,3 -3,12 -3,24zm-20 95l0 -95c0,-16 1,-29 7,-36l0 0c7,-11 19,-12 37,-1l209 121 0 0 207 119 0 0c14,9 23,18 29,30 6,11 8,25 8,43l0 362 0 11 -10 0c-7,0 -13,-2 -19,-4 -6,-3 -12,-6 -20,-11l-67 -38 -5 -3 0 -6 0 -174c-3,-1 -6,-2 -9,-3 -5,-3 -12,-6 -20,-11l-205 -118 0 0 -137 -80 -5 -3 0 -5 0 -98z"/>
   <path class="fil0" d="M382 6894l0 139 0 46 177 102 205 118c15,9 24,14 34,14l0 235 27 16c15,8 24,13 33,13l0 -363c0,-33 -6,-48 -31,-64l-207 -119 -238 -137z"/>
   <path class="fil2" d="M392 6912l0 121 0 40 172 99 0 0 205 118c7,4 13,8 18,10 4,1 7,2 10,2l11 0 0 11 0 229 22 13 0 0c7,4 13,7 18,9l0 0 0 -350c0,-15 -1,-25 -5,-34 -4,-7 -11,-14 -22,-21l-206 -119 -223 -128zm-20 121l0 -139 0 -18 15 9 238 137 207 119 0 1c14,9 23,18 29,29 6,12 8,25 8,43l0 363 0 10 -10 0c-7,0 -13,-1 -19,-4 -6,-2 -12,-6 -20,-10l0 0 -28 -16 -5 -3 0 -6 0 -226c-2,-1 -5,-2 -8,-3 -6,-3 -12,-6 -20,-11l-205 -118 0 0 -177 -102 -5 -3 0 -6 0 -46z"/>
   <path class="fil0" d="M286 6896l0 155c3,3 8,6 14,9l209 121 205 118c15,9 24,14 33,14l0 288c6,3 10,4 15,4l0 -363c0,-36 -8,-50 -39,-68l-153 -89 0 -41c0,-35 -14,-50 -45,-68l-209 -120c-30,-15 -30,4 -30,40z"/>
   <path class="fil2" d="M296 6896l0 150c0,0 1,0 2,1 2,1 4,3 7,4l0 0 209 121 0 0 205 118c7,4 13,8 18,10 4,1 7,2 10,2l5 0 0 -60c0,-16 -2,-27 -7,-36 -5,-8 -13,-15 -27,-23l-153 -89 -6 -3 0 -6 0 -41c0,-15 -2,-26 -8,-34 -7,-9 -17,-16 -32,-25l-207 -120c-9,-4 -13,-5 -13,-3 -3,5 -3,18 -3,34zm-21 155l0 -155c0,-19 0,-34 5,-44 7,-13 19,-16 41,-5l1 0 208 120c17,10 29,19 37,31 9,12 13,26 13,46l0 35 148 86c17,10 28,19 35,31 7,12 9,26 9,46l0 363 0 10 -10 0c-3,0 -6,0 -9,-1 -3,-1 -6,-2 -10,-3l-6 -3 0 -7 0 -279c-3,-1 -5,-2 -8,-3 -6,-3 -12,-6 -20,-11l-205 -118 0 0 -209 -121 0 0c-4,-2 -6,-3 -9,-5 -2,-1 -5,-3 -7,-5l-4 -3 0 -5z"/>
   <path class="fil0" d="M1221 7028c1,5 1,11 1,19l0 242 0 236c0,32 -1,39 -29,55l-209 121 -205 118c-15,9 -24,14 -33,13l0 -520c9,0 18,-5 33,-13l205 -119 209 -120c19,-11 26,-18 28,-32l0 0 0 0 0 0z"/>
   <path class="fil2" d="M1231 7027c1,2 1,6 1,9 1,4 1,7 1,11l0 242 0 236c0,18 -1,28 -6,38 -5,10 -13,17 -29,26l-209 121 0 0 -205 118c-8,5 -14,8 -20,11 -6,2 -12,4 -18,4l-11 -1 0 -10 0 -520 0 -11 11 1c3,0 6,-1 10,-3 5,-2 11,-5 18,-9l0 0 205 -119 0 0 209 -120 0 0c9,-5 14,-9 18,-13l0 0c3,-3 4,-7 5,-11l9 1 11 -2 0 1 0 0zm-19 262l0 -229c-4,3 -8,6 -14,9l0 0 -209 120 0 0 -205 119 0 0c-8,4 -14,8 -20,10 -2,1 -5,2 -8,3l0 499 0 0c5,-3 11,-6 18,-10l205 -118 0 0 209 -121c12,-7 18,-11 21,-17 3,-6 3,-14 3,-29l0 -236z"/>
   <g>
    <path class="fil1" d="M2036 8755l0 -1081c0,-55 44,-98 98,-98l472 0c54,0 97,43 97,98l0 1081c0,54 -43,97 -97,97l-472 0c-54,0 -98,-43 -98,-97zm-51 -1093l0 1104c0,37 23,75 43,95 21,21 55,43 95,43l494 0c39,0 73,-22 95,-43 20,-20 43,-58 43,-95l0 -1104c0,-69 -69,-138 -138,-138l-494 0c-69,0 -138,69 -138,138z"/>
    <path class="fil1" d="M2100 7697l540 0 0 931 -540 0 0 -931zm-29 -12l0 949c0,13 9,23 23,23l552 0c13,0 23,-10 23,-23l0 -949c0,-13 -4,-17 -17,-17l-564 0c-13,0 -17,4 -17,17z"/>
    <path class="fil1" d="M2324 8755c0,-80 92,-53 92,-18 0,95 -92,70 -92,18zm-29 -12c0,79 73,107 123,66 51,-41 30,-135 -54,-135 -34,0 -69,35 -69,69z"/>
    <path class="fil1" d="M2307 7633l126 0c18,0 16,-6 17,-23l-161 0c2,17 0,23 18,23z"/>
   </g>
   <g>
    <path class="fil1" d="M3411 5309l72 0 -223 489 950 0 -221 -489 73 0c7,0 7,-1 12,7l288 533c57,109 35,145 -54,145l-565 0 -13 0 -566 0c-89,0 -110,-36 -54,-145l289 -533c4,-8 5,-7 12,-7z"/>
    <path class="fil1" d="M3411 5243l319 0 13 0 319 0c7,0 7,-1 12,3l288 240c57,49 35,66 -54,66l-565 0 -13 0 -566 0c-89,0 -110,-17 -54,-66l289 -240c4,-4 5,-3 12,-3z"/>
    <path class="fil1" d="M4380 5521c31,34 4,46 -73,46l-564 0 -13 0 -565 0c-77,0 -103,-12 -72,-46 -7,21 21,29 82,29l555 0 13 0 554 0c61,0 90,-8 83,-29z"/>
   </g>
   <g>
    <path class="fil1" d="M1007 9174c17,-9 345,-4 411,-4l102 0c22,0 21,-4 27,9 1,16 -1,12 -47,12l-476 0c-24,-3 -15,3 -17,-17zm-64 -907c10,0 18,8 18,18 0,10 -8,17 -18,17 -10,0 -18,-7 -18,-17 0,-10 8,-18 18,-18zm-604 899c7,0 12,6 12,13 0,7 -5,12 -12,12 -7,0 -13,-5 -13,-12 0,-7 6,-13 13,-13zm-39 0c7,0 12,6 12,13 0,7 -5,12 -12,12 -7,0 -13,-5 -13,-12 0,-7 6,-13 13,-13zm-39 0c7,0 13,6 13,13 0,7 -6,12 -13,12 -7,0 -13,-5 -13,-12 0,-7 6,-13 13,-13zm279 25c-14,0 -21,0 -26,-1l-7 -4c0,-1 -1,-1 -2,-2l1 -10c12,-6 13,-4 34,-4 17,0 17,-2 29,4 -2,23 2,17 -29,17zm-323 -69c-37,42 -10,108 73,100 34,-1 68,-1 101,-1l1219 0c100,7 86,-90 36,-107l-129 -44c-9,-3 -19,-5 -29,-5l-63 0 -1 -3 92 -1 -2 -798c-8,-7 -8,-7 -33,-7 -163,1 -1084,-4 -1111,2l0 802 92 -1 0 7 -91 2c-20,2 -124,43 -154,54zm1240 -502l-1 379 -2 1 -1026 -1 0 -685 1031 1 -2 305zm-979 548l-1 21 -52 1c-14,-4 -6,2 -11,-11 9,-16 5,-8 64,-9l0 -2zm-48 -57l-117 0c55,-28 172,-19 241,-19l716 -1c31,1 30,4 45,19l-329 1 -556 0zm902 -18c67,-3 182,-7 236,18l-188 0c-30,0 -35,-1 -48,-18zm-30 -26l-705 -1 1 -9 703 1 1 9z"/>
    <circle class="fil1 str0" cx="943" cy="8285" r="18"/>
   </g>
   <g>
    <path class="fil1" d="M4096 8186c8,2 10,6 15,10l13 17c-8,-4 -25,-18 -28,-27 -6,-3 -23,-16 -25,-26 -6,-3 -23,-16 -26,-26 -9,-4 -24,-16 -25,-25 6,2 10,6 14,10 7,6 8,6 11,15 7,3 10,7 15,11 7,6 8,5 11,15 7,3 10,6 15,11 7,6 7,5 10,15z"/>
    <path class="fil1" d="M3733 8304c-13,-8 -13,-4 -16,-16 5,2 6,1 9,4 7,7 1,0 7,12z"/>
    <path class="fil1" d="M3872 8442c6,3 22,16 25,26 -7,-3 -10,-7 -15,-11 -7,-6 -7,-5 -10,-15z"/>
    <path class="fil1" d="M3846 8416c6,3 23,16 26,26 -8,-3 -10,-6 -16,-11 -7,-6 -7,-5 -10,-15z"/>
    <path class="fil1" d="M3820 8391c6,2 23,16 26,25 -7,-3 -10,-6 -15,-10 -7,-6 -8,-6 -11,-15z"/>
    <path class="fil1" d="M3794 8365c7,3 23,16 26,26 -7,-3 -10,-7 -15,-11 -7,-6 -7,-5 -11,-15z"/>
    <path class="fil1" d="M3769 8339c6,3 23,16 25,26 -7,-3 -9,-6 -15,-11 -7,-6 -7,-5 -10,-15z"/>
    <path class="fil1" d="M3739 8309c8,6 27,21 30,30 -8,-3 -10,-7 -17,-12 -8,-6 -9,-6 -13,-18z"/>
    <path class="fil1" d="M3739 8304l0 5c-7,0 0,5 -6,-2 4,-4 -2,-4 6,-3z"/>
    <path class="fil1" d="M3753 8291c-4,10 -12,12 -12,12 0,-1 -1,1 -2,1 5,-10 -1,-2 5,-8 1,-1 4,-3 4,-3 1,0 2,0 2,-1 1,-1 2,0 3,-1z"/>
    <path class="fil1" d="M4070 8452c3,-9 26,-30 36,-39 8,-8 9,-9 18,-17l17 -18c5,-5 6,-4 11,-9 16,-15 52,-54 65,-62 -12,24 -24,27 -34,38l-31 31c-20,22 -14,9 -35,35 0,1 -1,2 -1,2 -1,1 -1,1 -2,2l-22 23c-20,22 -9,18 -22,14z"/>
    <path class="fil4" d="M4063 8457c1,-1 1,-2 2,-2 6,-4 -2,-1 5,-3 -1,11 -3,11 -12,16"/>
    <path class="fil1" d="M3949 8519c-8,-3 -10,-6 -15,-11 -7,-6 -8,-5 -11,-15 -7,-3 -10,-6 -15,-10 -7,-6 -8,-6 -11,-15 6,2 23,16 26,25 6,3 23,16 26,26z"/>
    <path class="fil4" d="M3959 8531c-9,-6 -8,-4 -10,-12 9,4 7,3 12,11"/>
    <path class="fil1" d="M3853 8003c-31,0 -19,22 -22,90l-172 0 -1 -50 -129 0 1 51 -8 0 -21 0 -1 -28 -117 1 -1 25c-44,6 -66,12 -86,41 -18,26 -19,74 -15,110l29 0 3 -1c1,0 312,5 330,1 9,-1 5,1 10,-4l7 -7c4,-3 4,-3 7,-7 21,-23 48,-43 81,-57 86,-36 207,-13 265,62 5,6 7,12 16,13l225 0c7,-63 2,-117 -56,-143 -21,-10 -37,-5 -59,-8l-2 -68c0,-19 -15,-25 -46,-24l-238 3z"/>
    <polygon class="fil1" points="4012,8029 4025,8029 4103,8029 4104,8038 4104,8093 4000,8093 3867,8093 3868,8029 3931,8029 3944,8029 "/>
    <path class="fil1" d="M4041 8499c-6,10 -12,20 -19,29 -12,16 -32,35 -49,47 -40,27 -91,46 -152,42 -177,-13 -260,-180 -196,-334l-345 1c0,58 -7,300 8,336 23,54 71,55 115,55l769 0c30,-3 40,-15 56,-26 4,-5 8,-9 12,-15 4,-6 4,-8 9,-12l5 -25c4,-10 6,-296 1,-315l-205 1 2 4c8,29 17,45 19,81 3,45 -8,92 -30,131z"/>
    <path class="fil1" d="M4021 8324c-12,-37 -31,-63 -56,-84 -30,-27 -79,-46 -119,-49 -64,-1 -112,26 -144,56 -34,33 -56,80 -57,147l1 7c16,140 157,213 274,157 88,-42 131,-139 101,-234z"/>
    <path class="fil1" d="M4031 8601l-32 -27c-10,-11 -3,1 -7,-13 12,6 32,27 39,40z"/>
   </g>
   <path class="fil1" d="M1786 5373c-21,14 -35,27 -47,49 -21,39 -19,102 6,138 28,41 53,51 94,63 3,1 5,2 8,2 4,1 5,0 9,1 3,1 5,1 9,2 6,0 11,0 18,0l106 3c60,1 119,4 178,4 31,0 123,6 144,3 -4,-11 3,-33 -1,-45 -4,-1 -26,-1 -32,-1l-34 -1c-75,-2 -156,-6 -231,-6 -12,0 -22,0 -34,-1 -37,-2 -98,1 -132,-6 -4,-1 -11,-3 -15,-5 -6,-2 -11,-5 -16,-7 -37,-19 -47,-57 -44,-93 0,-7 3,-15 5,-22 2,-4 1,-5 3,-9 13,-25 44,-40 70,-45 21,-5 40,-3 61,-2 7,1 13,1 21,1 34,0 67,3 101,3l82 3c8,0 13,0 21,1l142 4c28,1 125,3 143,6 35,7 53,33 47,67 -1,8 -2,15 -5,22 -15,32 -53,31 -82,30l-212 -6c-6,0 -10,0 -16,0l-98 -2c-21,-1 -80,0 -97,-5 -17,-6 -37,-13 -35,-35 2,-21 33,-30 48,-30l258 10c2,-7 2,-38 2,-47 -35,1 -95,-3 -130,-4l-130 -5c-8,-1 -18,1 -26,4 -13,3 -32,10 -42,20 -29,24 -34,65 -18,89 12,17 21,26 39,35 16,8 35,12 52,12 67,0 133,5 199,5l126 3c26,1 94,4 118,2 35,-2 67,-21 84,-52 12,-22 14,-47 12,-72 -2,-13 -6,-26 -13,-38l-6 -8c-10,-14 -24,-25 -40,-32 -10,-5 -21,-8 -31,-9l-4 -1c0,0 -1,0 -1,0l-7 0c-8,0 -14,-1 -21,-1 -52,0 -105,-5 -156,-5l-267 -9c-30,-1 -59,-2 -89,-3 -16,-1 -29,1 -46,5 -15,4 -31,8 -48,20z"/>
   <path class="fil1" d="M3201 6744l216 0c49,1 73,-20 72,-70l0 -218c127,0 255,0 382,0 24,0 70,-4 90,5 22,11 33,30 33,62l0 859c0,34 3,60 -17,80 -20,20 -45,17 -79,17l-475 0c-34,0 -166,5 -187,-5 -22,-10 -35,-28 -35,-60 0,-221 -3,-451 0,-670zm136 225l520 0 0 -39 -520 -1 0 40zm0 -106l520 0 0 -40 -519 0 -1 40zm1 212l519 0 0 -39 -520 -1 1 40zm-1 212l520 0 0 -40 -519 0 -1 40zm0 -106l520 0 0 -40 -519 0 -1 40zm-93 338l711 0 9 -3c36,-13 63,-38 69,-79 3,-21 1,-729 1,-787 0,-37 4,-125 -1,-156 -12,-61 -62,-69 -79,-78l-513 0c-6,10 -34,35 -45,46 -72,72 -157,160 -229,229 -11,10 -7,20 -7,39l0 505c0,60 -2,124 0,183 1,32 9,49 25,68 23,27 41,25 59,33z"/>
   <path class="fil1" d="M3396 9240c-16,13 -340,-2 -359,-13 12,-9 222,5 266,6l73 2c2,0 10,0 11,1 8,1 7,2 9,4zm1200 -86l1 23c29,-6 43,-16 -1,-23zm-477 78c42,-1 83,-3 124,-7 20,-1 41,-3 61,-5 35,-4 52,-3 52,-17l0 -67c0,-14 3,-18 -12,-20 -227,-27 -458,-23 -686,-20l0 139c155,1 306,4 461,-3zm-1106 -120c-39,-4 -81,19 -80,54 0,33 45,58 81,52l-1 -106zm1578 42l-220 -35 -1 91 221 -31 0 -25zm-1567 -45c-5,140 -5,131 66,138 85,9 299,28 375,8 20,-5 24,-14 34,-17 15,-4 101,4 146,-5l0 -137c-149,-7 -318,0 -470,6 -26,1 -52,3 -78,4 -25,0 -45,2 -73,3z"/>
   <rect class="fil0" x="4799" y="4807" width="4825" height="4825"/>
   <path class="fil1" d="M7380 5992l0 952c0,25 -7,18 -43,18 -119,0 -926,3 -958,-1 -4,-33 11,-36 28,-53l28 -29c0,0 1,0 1,-1l55 -55c1,0 1,-1 2,-1l45 -45c29,-26 62,-62 90,-91 1,0 1,-1 2,-1 1,-1 3,-4 4,-4l230 -230c4,-4 6,-6 9,-9l134 -135c3,-2 5,-5 8,-7l8 -8c3,-3 5,-5 8,-9l65 -64c2,-2 4,-4 7,-7 1,-1 1,-1 1,-2l35 -34c3,-3 1,-2 4,-4l55 -55c19,-23 64,-64 88,-88l51 -52c11,-10 23,-23 37,-12 8,5 6,17 6,27zm-865 942c0,-14 -2,-27 4,-40 21,-2 13,10 15,38l19 0c0,-19 -6,-26 6,-39 6,5 5,-6 5,7 4,7 2,24 3,35l22 -1 2 -38c13,6 7,17 9,39l22 -2c0,-12 0,-25 0,-37 0,-6 -1,-13 0,-18 0,-4 0,-7 1,-10 1,-6 0,-4 2,-7 5,6 4,7 4,19l0 54 21 0c1,-12 -2,-29 4,-39 9,1 7,4 7,16 0,8 0,15 0,24l24 0c0,-9 0,-16 0,-24 1,-11 1,-9 7,-15 8,11 2,14 4,28 1,15 6,11 22,11 0,-8 -3,-51 8,-37 6,6 2,17 3,26 2,15 6,11 22,11 1,-16 1,-31 1,-47 0,-16 -5,-30 10,-29 4,64 -12,79 20,75 0,-16 -2,-25 3,-41l15 2 1 38 17 0c0,-33 -4,-28 5,-32 2,-5 -1,-3 4,-5 6,13 3,21 4,38l25 0 1 -37 10 1 1 37 22 -3c0,-12 0,-24 0,-36 0,-13 -3,-27 4,-35 1,1 1,2 1,2 0,1 1,2 1,3l2 68 18 -1 1 -27c1,-6 0,-3 3,-7 9,8 3,12 5,35l25 0c1,-7 0,-13 1,-21 0,-14 -3,-9 5,-13 7,5 5,3 5,16 0,6 0,11 0,18l23 0 2 -39 9 3 1 37 20 -2c1,-17 -4,-62 4,-73 7,4 5,3 5,15l0 59 20 0c0,-7 0,-14 0,-21 1,-13 -2,-9 5,-13 9,5 5,14 6,34l23 1c2,-18 -4,-38 11,-38l1 37 21 1c2,-18 -5,-38 12,-38l1 37c30,2 23,0 23,-30 0,-35 -5,-41 7,-44 6,12 2,56 3,74l22 0c3,-35 -4,-29 9,-36 4,9 1,25 2,37l27 -2c0,-17 -4,-37 6,-36 8,4 4,28 5,38l21 -1 3 -38c13,6 8,20 9,39 30,0 22,-4 22,-37 0,-26 -4,-42 11,-41l1 78 48 -1c2,-15 3,-60 -1,-72 -10,-1 -26,2 -35,-5 7,-4 6,-3 16,-3 3,0 12,0 15,-1 9,-3 6,-13 6,-24 -19,-3 -36,5 -37,-11l38 -3 -1 -20c-20,-4 -30,4 -34,-7 5,-9 15,0 35,-6l-1 -20c-25,-2 -63,4 -73,-4l11 -4c45,-4 63,16 62,-20l-36 -2c2,-9 2,-9 12,-9 9,-1 15,0 24,-1l0 -21c-25,-6 -31,4 -36,-7 4,-10 11,-4 36,-6l0 -20c-30,-5 -37,6 -37,-12l37 -1 -1 -21 -66 -1c-7,-3 -3,2 -6,-6 4,-7 0,-5 14,-5 6,-1 14,0 20,0 13,0 26,1 38,-1 1,-27 -1,-19 -23,-20 -14,-1 -10,0 -13,-7 5,-9 15,-3 36,-6l0 -21c-18,-2 -36,3 -37,-6 0,-11 23,-4 38,-8l1 -19c-21,-4 -30,3 -35,-7 4,-8 15,-4 34,-5l0 -22c-13,-1 -26,-1 -39,-1 -30,0 -29,4 -33,-5 3,-6 -1,-2 5,-5 8,-2 50,3 68,-2l-1 -14c-8,-1 -10,0 -18,0 -8,-1 -11,-1 -17,-5 9,-5 23,-2 35,-4l0 -24c-8,-2 -10,-2 -18,-2 -18,0 -15,-2 -16,-5 4,-8 16,-4 34,-6l-1 -21 -37 -3c5,-13 21,-7 38,-9l0 -18c-14,-1 -28,-1 -41,-1 -34,0 -28,4 -32,-6 12,-8 50,0 74,-5l-1 -19c-14,-1 -31,1 -34,-5 0,-14 5,-3 33,-8l0 -20c-10,-2 -29,2 -37,-5l0 -5c9,-6 26,-2 38,-4 0,-14 4,-19 -8,-21 -3,-1 -12,0 -16,0 -17,-1 -7,1 -10,-6 4,-8 25,-4 34,-5 1,-29 -3,-23 -31,-22 -7,0 -45,4 -45,-6 1,-9 67,-4 76,-5 0,-16 4,-22 -10,-23 -11,0 -19,3 -28,-3 3,-12 20,-6 38,-7l-1 -23c-15,-1 -28,4 -33,-6 3,-6 -6,-3 10,-5 4,0 13,1 16,0 12,-2 9,-9 8,-22 -18,-1 -30,5 -34,-6 3,-6 -1,-2 6,-4 9,-3 18,-1 28,-2l0 -21c-13,-1 -26,-1 -39,-1 -22,0 -29,5 -33,-5 6,-13 44,1 73,-7l-1 -76c-11,0 -12,9 -19,16l-125 125c-8,9 -18,17 -28,28l-198 199c-1,0 -1,1 -2,1l-68 68c0,0 -1,1 -1,1l-73 73c-5,5 -10,11 -15,16 -1,0 -1,0 -1,1l-14 12c-5,5 -10,10 -14,14l-14 15c-5,5 -10,9 -15,15l-206 206c-34,34 -45,42 -78,78 -3,3 -5,6 -8,8 -2,2 -1,1 -3,4l-7 6c-2,2 -1,1 -4,4 -3,3 -3,3 -7,6 -3,3 -4,4 -7,8 -6,8 -2,-2 -4,9l81 -1zm726 -509c0,80 4,377 -4,407 -59,3 -119,1 -179,1l-348 0c-20,-29 3,-34 39,-72l19 -20c6,-7 10,-10 16,-16l260 -260c0,-1 1,-1 1,-2l158 -157c11,-12 12,-13 32,-12 3,10 6,0 6,28l0 103zm-35 373l-442 1 13 -17c1,-1 1,-1 1,-2l66 -65c0,0 1,-1 1,-1l56 -57c1,0 1,0 2,-1l135 -136c1,0 1,-1 2,-1l17 -18c2,-1 3,-2 4,-4 1,0 1,-1 1,-1l4 -4c1,0 1,-1 2,-1l68 -68c0,0 1,-1 1,-1l56 -56c9,-9 6,-8 14,-10 1,17 3,419 -1,442z"/>
   <g>
    <path class="fil1" d="M5855 6322c-32,27 -80,27 -107,-5l-10 -12c-29,-34 -35,-108 -2,-136l10 -9c62,-52 174,108 109,162zm-475 -54c-15,12 -23,20 -41,24 -7,2 -9,2 -15,2l-15 -1c-43,-7 -73,-48 -53,-97 30,-75 129,-129 158,-45 11,32 -2,89 -34,117zm197 -360c-6,-7 -11,-13 -11,-23 -1,-39 69,-36 62,3 -4,27 -36,37 -51,20zm-34 -98c-3,-10 -10,-23 -15,-34 -6,-14 -10,-24 -16,-37l-164 -364c-18,-41 -49,-108 -9,-142 10,14 121,271 130,290l64 145c10,25 21,48 32,73 10,22 13,22 -22,69zm-60 64c-24,21 -47,38 -60,60 -18,30 -19,38 -26,65 -4,13 -8,9 -28,16 -92,30 -164,80 -194,174 -12,35 -15,99 16,136 21,25 26,30 59,43 46,18 115,9 153,-24 45,-38 69,-73 82,-129 6,-29 14,-91 -11,-120 -14,-16 -11,-15 -26,-26 8,-10 15,-31 22,-45 15,-27 20,-35 43,-54 19,-17 16,9 60,11 14,1 51,-2 63,1 15,2 19,6 27,19 19,27 31,68 38,98 -10,7 -7,2 -22,15 -80,68 -31,342 159,309 72,-13 116,-83 113,-149 -4,-101 -64,-164 -150,-210 -12,-7 -26,-12 -36,-19 -10,-87 -18,-86 -80,-160 -7,-9 -17,-18 -21,-27 -5,-9 -9,-20 -12,-27l-76 -161c-8,-17 -17,-36 -25,-55 -33,-72 -66,-142 -97,-214 -15,-36 -28,-70 -43,-106 -14,-34 -31,-87 -54,-115 -23,-26 -112,50 -120,102 -5,43 148,378 168,422l78 170z"/>
    <path class="fil1" d="M5628 5683c5,8 7,17 10,25 3,8 6,18 11,26l72 -110c58,-87 144,-222 203,-303 11,-15 11,-15 25,-13 4,8 6,9 5,17 -4,39 -126,212 -155,259 -37,60 -82,126 -122,187 -6,11 -8,9 -5,18l37 76c15,-13 134,-198 150,-222 15,-25 32,-50 47,-74 22,-36 123,-196 129,-224 5,-26 -9,-57 -28,-82l-17 -21c-22,-23 -46,-36 -55,-28 -25,20 -89,135 -113,175 -12,19 -183,283 -194,294z"/>
   </g>
   <path class="fil1" d="M5574 6756l210 120 205 119c27,15 33,20 33,52l0 242 0 236c0,32 -2,39 -29,55l-209 121 -205 118c-28,16 -35,18 -63,3l-209 -121 -205 -119c-27,-15 -33,-20 -33,-52l0 -241 0 -237c0,-32 2,-39 29,-55l209 -121 205 -118c28,-16 35,-18 62,-2z"/>
   <path class="fil2" d="M5580 6747l209 120 0 0 205 119 0 0c15,8 24,14 30,23 6,9 8,20 8,38l0 242 0 236c0,18 -1,28 -5,38 -5,10 -14,17 -29,26l-209 121 0 0 -205 118c-15,9 -25,14 -36,15 -11,0 -21,-3 -37,-13l-209 -120 0 0 -205 -119c-15,-8 -24,-14 -30,-23 -6,-9 -8,-20 -8,-38l0 -241 0 -237c0,-18 0,-28 5,-38 5,-10 14,-17 29,-26l209 -121 0 0 205 -118c15,-9 25,-14 36,-15 11,0 21,4 37,13l0 0zm198 138l-209 -121 0 0c-12,-6 -19,-9 -25,-9 -6,1 -14,5 -26,12l-205 118 0 0 -209 121c-12,7 -18,11 -21,17 -3,6 -3,14 -3,29l0 237 0 241c0,14 1,21 4,26 4,6 11,10 24,18l205 118 0 0 209 121c12,6 19,9 25,9 6,0 14,-5 26,-12l205 -118 0 0 209 -121c12,-7 18,-11 21,-17 3,-6 3,-14 3,-29l0 -236 0 -242c0,-14 -1,-21 -4,-26 -4,-6 -11,-10 -24,-17l0 0 -205 -119 0 0z"/>
   <path class="fil0" d="M5574 6756l210 120 205 119c20,12 29,17 31,33 -2,14 -9,21 -27,32l-209 120 -205 119c-28,16 -35,18 -63,2l-209 -121 -205 -118c-21,-12 -29,-18 -31,-34 2,-13 8,-20 27,-31l209 -121 205 -118c28,-16 35,-18 62,-2z"/>
   <path class="fil2" d="M5580 6747l209 120 0 0 205 119c11,6 19,11 25,17 6,6 10,13 12,24l0 3c-2,9 -5,16 -11,22l0 0c-5,6 -12,11 -22,17l0 0 -209 120 0 0 -205 119 0 0c-15,8 -25,13 -36,14 -11,1 -21,-3 -37,-12l0 0 -209 -121 0 0 -205 -118 0 0c-11,-6 -19,-11 -25,-17 -6,-7 -10,-14 -12,-24l0 -3c2,-9 5,-16 11,-22l0 0c5,-6 12,-11 22,-17l0 0 209 -121 0 0 205 -118c15,-9 25,-14 36,-15 11,0 21,4 37,13l0 0zm198 138l-209 -121 0 0c-12,-6 -19,-9 -25,-9 -6,1 -14,5 -26,12l-205 118 0 0 -209 121 0 0c-9,5 -15,9 -18,12l0 1c-3,2 -4,5 -5,9 1,5 3,8 6,11 4,4 11,9 21,14l0 0 205 118 0 0 209 121 0 0c12,7 19,10 25,10 6,-1 14,-5 26,-12l0 0 205 -119 0 0 209 -120 0 0c9,-5 14,-9 18,-13l0 0c3,-3 4,-6 5,-10 -1,-4 -3,-8 -6,-11 -4,-4 -11,-8 -21,-13l-205 -119 0 0z"/>
   <path class="fil3" d="M5574 6756l210 120 205 119c20,12 29,17 31,33 -2,14 -9,21 -27,32l-209 120 -205 119c-15,8 -23,13 -32,13l0 -567c7,0 15,4 27,11z"/>
   <path class="fil0" d="M5589 6728l390 185c44,22 54,43 44,75l-161 414 -486 -237c53,-130 108,-287 166,-411 10,-21 26,-36 47,-26z"/>
   <path class="fil2" d="M5594 6718l389 186 0 0c24,12 40,24 47,38 9,14 9,30 3,49l-1 1 -160 413 -4 11 -10 -5 -486 -237 -9 -4 3 -9c19,-45 37,-91 54,-138 37,-94 74,-191 113,-274 6,-13 15,-24 26,-30 10,-6 22,-7 35,-1l0 0zm380 205l-389 -186 0 0c-6,-3 -12,-3 -16,0 -7,4 -13,12 -17,21 -39,82 -76,179 -112,273 -18,45 -35,89 -51,129l468 227 156 -402 0 0c4,-13 4,-24 -1,-33 -5,-10 -18,-20 -38,-29l0 0z"/>
   <path class="fil0" d="M5266 6909l0 95 0 98 138 79 205 118c15,9 24,14 33,14l0 183 67 38c15,9 24,14 34,13l0 -362c0,-33 -7,-48 -32,-64l-207 -119 -209 -121c-25,-15 -29,0 -29,28z"/>
   <path class="fil2" d="M5277 6909l0 95 0 92 132 76 0 0 205 118c7,4 13,8 18,10 4,1 7,2 10,2l11 0 0 11 0 177 61 35c7,4 13,7 18,10l0 0 0 -350c0,-15 -1,-26 -5,-34 -4,-8 -11,-14 -22,-21l0 0 -206 -119 0 0 -209 -121c-7,-4 -10,-6 -11,-5l0 0c-2,3 -2,12 -2,24zm-21 95l0 -95c0,-16 1,-29 7,-36l0 0c8,-11 19,-12 37,-1l209 121 0 0 207 119 1 0c14,9 23,18 28,30 6,11 8,25 8,43l0 362 0 11 -10 0c-6,0 -12,-2 -19,-4 -5,-3 -12,-6 -20,-11l-67 -38 -5 -3 0 -6 0 -174c-3,-1 -5,-2 -8,-3 -6,-3 -12,-6 -20,-11l-205 -118 0 0 -138 -80 -5 -3 0 -5 0 -98z"/>
   <path class="fil0" d="M5181 6894l0 139 0 46 178 102 205 118c15,9 23,14 33,14l0 235 27 16c15,8 24,13 34,13l0 -363c0,-33 -7,-48 -32,-64l-207 -119 -238 -137z"/>
   <path class="fil2" d="M5192 6912l0 121 0 40 172 99 0 0 205 118c7,4 12,8 17,10 4,1 8,2 11,2l10 0 0 11 0 229 23 13 0 0c7,4 12,7 17,9l0 0 0 -350c0,-15 -1,-25 -5,-34 -4,-7 -11,-14 -21,-21l-207 -119 -222 -128zm-21 121l0 -139 0 -18 15 9 239 137 206 119 1 1c14,9 23,18 29,29 5,12 7,25 7,43l0 363 0 10 -10 0c-6,0 -12,-1 -19,-4 -5,-2 -12,-6 -20,-10l0 0 -27 -16 -5 -3 0 -6 0 -226c-3,-1 -6,-2 -9,-3 -5,-3 -12,-6 -20,-11l-205 -118 0 0 -177 -102 -5 -3 0 -6 0 -46z"/>
   <path class="fil0" d="M5085 6896l0 155c4,3 8,6 14,9l209 121 205 118c15,9 24,14 34,14l0 288c5,3 10,4 14,4l0 -363c0,-36 -8,-50 -39,-68l-153 -89 0 -41c0,-35 -14,-50 -45,-68l-208 -120c-31,-15 -31,4 -31,40z"/>
   <path class="fil2" d="M5095 6896l0 150c1,0 1,0 2,1 2,1 5,3 7,4l0 0 209 121 0 0 205 118c7,4 13,8 18,10 4,1 7,2 10,2l5 0 0 -60c0,-16 -2,-27 -7,-36 -4,-8 -13,-15 -27,-23l-153 -89 -5 -3 0 -6 0 -41c0,-15 -3,-26 -9,-34 -6,-9 -17,-16 -31,-25l-208 -120c-9,-4 -12,-5 -13,-3 -3,5 -3,18 -3,34zm-20 155l0 -155c0,-19 0,-34 5,-44 7,-13 18,-16 40,-5l1 0 208 120c17,10 29,19 38,31 8,12 12,26 12,46l0 35 149 86c17,10 27,19 34,31 7,12 10,26 10,46l0 363 0 10 -10 0c-4,0 -7,0 -10,-1 -3,-1 -6,-2 -9,-3l-7 -3 0 -7 0 -279c-2,-1 -5,-2 -8,-3 -6,-3 -12,-6 -20,-11l-205 -118 0 0 -209 -121 0 0c-3,-2 -6,-3 -8,-5 -3,-1 -5,-3 -7,-5l-4 -3 0 -5z"/>
   <path class="fil0" d="M6020 7028c1,5 2,11 2,19l0 242 0 236c0,32 -2,39 -29,55l-209 121 -205 118c-16,9 -24,14 -34,13l0 -520c10,0 18,-5 34,-13l205 -119 209 -120c18,-11 25,-18 27,-32l0 0 0 0 0 0z"/>
   <path class="fil2" d="M6031 7027c0,2 0,6 1,9 0,4 0,7 0,11l0 242 0 236c0,18 -1,28 -5,38 -5,10 -14,17 -29,26l-209 121 0 0 -205 118c-8,5 -15,8 -20,11 -7,2 -13,4 -19,4l-10 -1 0 -10 0 -520 0 -11 10 1c3,0 7,-1 11,-3 5,-2 10,-5 17,-9l0 0 205 -119 0 0 209 -120 0 0c9,-5 14,-9 18,-13l0 0c3,-3 4,-7 5,-11l10 1 11 -2 0 1 0 0zm-20 262l0 -229c-4,3 -8,6 -13,9l0 0 -209 120 0 0 -205 119 0 0c-8,4 -15,8 -20,10 -3,1 -6,2 -9,3l0 499 1 0c5,-3 10,-6 17,-10l205 -118 0 0 209 -121c12,-7 18,-11 21,-17 3,-6 3,-14 3,-29l0 -236z"/>
   <g>
    <path class="fil1" d="M6836 8755l0 -1081c0,-55 43,-98 97,-98l472 0c55,0 98,43 98,98l0 1081c0,54 -43,97 -98,97l-472 0c-54,0 -97,-43 -97,-97zm-52 -1093l0 1104c0,37 24,75 43,95 22,21 56,43 95,43l495 0c39,0 73,-22 94,-43 20,-20 44,-58 44,-95l0 -1104c0,-69 -70,-138 -138,-138l-495 0c-69,0 -138,69 -138,138z"/>
    <path class="fil1" d="M6899 7697l541 0 0 931 -541 0 0 -931zm-29 -12l0 949c0,13 10,23 23,23l552 0c14,0 23,-10 23,-23l0 -949c0,-13 -4,-17 -17,-17l-564 0c-13,0 -17,4 -17,17z"/>
    <path class="fil1" d="M7123 8755c0,-80 92,-53 92,-18 0,95 -92,70 -92,18zm-29 -12c0,79 73,107 124,66 50,-41 29,-135 -54,-135 -35,0 -70,35 -70,69z"/>
    <path class="fil1" d="M7106 7633l127 0c17,0 15,-6 17,-23l-161 0c1,17 0,23 17,23z"/>
   </g>
   <g>
    <path class="fil1" d="M8210 5309l73 0 -224 489 950 0 -220 -489 72 0c7,0 8,-1 12,7l289 533c56,109 35,145 -54,145l-566 0 -13 0 -566 0c-88,0 -110,-36 -53,-145l288 -533c4,-8 5,-7 12,-7z"/>
    <path class="fil1" d="M8210 5243l319 0 13 0 319 0c7,0 8,-1 12,3l289 240c56,49 35,66 -54,66l-566 0 -13 0 -566 0c-88,0 -110,-17 -53,-66l288 -240c4,-4 5,-3 12,-3z"/>
    <path class="fil1" d="M9179 5521c31,34 5,46 -72,46l-565 0 -13 0 -565 0c-76,0 -103,-12 -72,-46 -7,21 22,29 82,29l555 0 13 0 555 0c61,0 89,-8 82,-29z"/>
   </g>
   <g>
    <path class="fil1" d="M5806 9174c17,-9 346,-4 412,-4l101 0c23,0 21,-4 28,9 0,16 -2,12 -48,12l-476 0c-23,-3 -15,3 -17,-17zm-64 -907c10,0 18,8 18,18 0,10 -8,17 -18,17 -9,0 -17,-7 -17,-17 0,-10 8,-18 17,-18zm-604 899c7,0 12,6 12,13 0,7 -5,12 -12,12 -7,0 -13,-5 -13,-12 0,-7 6,-13 13,-13zm-39 0c7,0 13,6 13,13 0,7 -6,12 -13,12 -7,0 -13,-5 -13,-12 0,-7 6,-13 13,-13zm-39 0c7,0 13,6 13,13 0,7 -6,12 -13,12 -7,0 -12,-5 -12,-12 0,-7 5,-13 12,-13zm280 25c-14,0 -22,0 -27,-1l-7 -4c0,-1 0,-1 -1,-2l1 -10c12,-6 13,-4 33,-4 17,0 18,-2 29,4 -1,23 2,17 -28,17zm-324 -69c-37,42 -9,108 74,100 33,-1 67,-1 101,-1l1218 0c101,7 87,-90 36,-107l-128 -44c-10,-3 -20,-5 -30,-5l-63 0 0 -3 92 -1 -3 -798c-8,-7 -8,-7 -33,-7 -163,1 -1084,-4 -1110,2l-1 802 92 -1 0 7 -90 2c-21,2 -124,43 -155,54zm1240 -502l0 379 -3 1 -1025 -1 0 -685 1030 1 -2 305zm-979 548l0 21 -53 1c-14,-4 -5,2 -11,-11 10,-16 5,-8 64,-9l0 -2zm-48 -57l-116 0c54,-28 172,-19 241,-19l715 -1c31,1 31,4 45,19l-328 1 -557 0zm902 -18c67,-3 182,-7 237,18l-189 0c-30,0 -34,-1 -48,-18zm-30 -26l-705 -1 1 -9 704 1 0 9z"/>
    <circle class="fil1 str0" cx="5742" cy="8285" r="18"/>
   </g>
   <g>
    <path class="fil1" d="M8896 8186c7,2 10,6 15,10l12 17c-7,-4 -24,-18 -27,-27 -6,-3 -23,-16 -26,-26 -6,-3 -23,-16 -26,-26 -9,-4 -23,-16 -25,-25 7,2 10,6 15,10 7,6 7,6 10,15 8,3 10,7 15,11 7,6 8,5 11,15 7,3 10,6 15,11 7,6 8,5 11,15z"/>
    <path class="fil1" d="M8533 8304c-14,-8 -13,-4 -16,-16 4,2 5,1 8,4 8,7 1,0 8,12z"/>
    <path class="fil1" d="M8671 8442c6,3 23,16 26,26 -8,-3 -10,-7 -16,-11 -7,-6 -7,-5 -10,-15z"/>
    <path class="fil1" d="M8645 8416c6,3 23,16 26,26 -7,-3 -10,-6 -15,-11 -7,-6 -8,-5 -11,-15z"/>
    <path class="fil1" d="M8620 8391c6,2 22,16 25,25 -7,-3 -10,-6 -15,-10 -7,-6 -7,-6 -10,-15z"/>
    <path class="fil1" d="M8594 8365c6,3 23,16 26,26 -8,-3 -10,-7 -16,-11 -7,-6 -7,-5 -10,-15z"/>
    <path class="fil1" d="M8568 8339c6,3 23,16 26,26 -8,-3 -10,-6 -15,-11 -7,-6 -8,-5 -11,-15z"/>
    <path class="fil1" d="M8538 8309c9,6 27,21 30,30 -8,-3 -10,-7 -17,-12 -7,-6 -9,-6 -13,-18z"/>
    <path class="fil1" d="M8538 8304l0 5c-6,0 0,5 -5,-2 3,-4 -2,-4 5,-3z"/>
    <path class="fil1" d="M8552 8291c-4,10 -11,12 -11,12 -1,-1 -2,1 -3,1 5,-10 -1,-2 6,-8 0,-1 3,-3 4,-3 0,0 1,0 2,-1 0,-1 1,0 2,-1z"/>
    <path class="fil1" d="M8870 8452c3,-9 26,-30 35,-39 8,-8 9,-9 19,-17l17 -18c5,-5 5,-4 10,-9 16,-15 52,-54 65,-62 -11,24 -23,27 -34,38l-31 31c-19,22 -14,9 -34,35 -1,1 -1,2 -2,2 0,1 -1,1 -2,2l-22 23c-19,22 -9,18 -21,14z"/>
    <path class="fil4" d="M8862 8457c1,-1 2,-2 2,-2 6,-4 -2,-1 6,-3 -2,11 -4,11 -12,16"/>
    <path class="fil1" d="M8748 8519c-7,-3 -10,-6 -15,-11 -7,-6 -8,-5 -11,-15 -7,-3 -10,-6 -15,-10 -7,-6 -7,-6 -10,-15 6,2 22,16 25,25 6,3 23,16 26,26z"/>
    <path class="fil4" d="M8758 8531c-8,-6 -7,-4 -10,-12 9,4 7,3 13,11"/>
    <path class="fil1" d="M8652 8003c-30,0 -19,22 -22,90l-172 0 -1 -50 -129 0 1 51 -8 0 -21 0 0 -28 -118 1 0 25c-45,6 -67,12 -87,41 -18,26 -18,74 -15,110l29 0 3 -1c2,0 312,5 331,1 8,-1 5,1 9,-4l7 -7c5,-3 5,-3 8,-7 21,-23 47,-43 81,-57 85,-36 206,-13 265,62 4,6 6,12 16,13l225 0c6,-63 2,-117 -56,-143 -21,-10 -37,-5 -60,-8l-1 -68c-1,-19 -16,-25 -47,-24l-238 3z"/>
    <polygon class="fil1" points="8811,8029 8824,8029 8902,8029 8903,8038 8904,8093 8799,8093 8667,8093 8667,8029 8730,8029 8743,8029 "/>
    <path class="fil1" d="M8840 8499c-6,10 -12,20 -19,29 -12,16 -32,35 -49,47 -40,27 -90,46 -152,42 -177,-13 -259,-180 -195,-334l-345 1c-1,58 -8,300 8,336 22,54 70,55 114,55l769 0c31,-3 41,-15 56,-26 4,-5 8,-9 13,-15 3,-6 4,-8 8,-12l5 -25c4,-10 6,-296 2,-315l-206 1 2 4c8,29 17,45 20,81 3,45 -8,92 -31,131z"/>
    <path class="fil1" d="M8821 8324c-12,-37 -32,-63 -56,-84 -31,-27 -79,-46 -119,-49 -64,-1 -112,26 -144,56 -35,33 -56,80 -58,147l1 7c16,140 158,213 275,157 87,-42 131,-139 101,-234z"/>
    <path class="fil1" d="M8830 8601l-31 -27c-11,-11 -3,1 -8,-13 13,6 32,27 39,40z"/>
   </g>
   <path class="fil1" d="M6585 5373c-21,14 -35,27 -47,49 -21,39 -18,102 6,138 28,41 54,51 94,63 4,1 5,2 9,2 4,1 4,0 9,1 3,1 5,1 8,2 6,0 12,0 18,0l107 3c59,1 118,4 178,4 31,0 122,6 143,3 -4,-11 4,-33 0,-45 -4,-1 -27,-1 -33,-1l-33 -1c-76,-2 -157,-6 -232,-6 -11,0 -22,0 -33,-1 -38,-2 -99,1 -132,-6 -5,-1 -11,-3 -16,-5 -5,-2 -11,-5 -16,-7 -36,-19 -46,-57 -44,-93 1,-7 3,-15 5,-22 2,-4 2,-5 4,-9 13,-25 43,-40 69,-45 21,-5 40,-3 61,-2 8,1 14,1 21,1 34,0 68,3 102,3l82 3c7,0 13,0 20,1l142 4c29,1 125,3 143,6 36,7 53,33 48,67 -1,8 -2,15 -6,22 -14,32 -52,31 -82,30l-212 -6c-5,0 -9,0 -15,0l-98 -2c-22,-1 -81,0 -98,-5 -17,-6 -37,-13 -35,-35 2,-21 33,-30 49,-30l257 10c3,-7 2,-38 2,-47 -35,1 -94,-3 -129,-4l-131 -5c-7,-1 -18,1 -26,4 -13,3 -31,10 -42,20 -28,24 -34,65 -18,89 12,17 21,26 39,35 16,8 35,12 53,12 66,0 132,5 199,5l125 3c26,1 94,4 118,2 35,-2 68,-21 84,-52 12,-22 14,-47 12,-72 -1,-13 -6,-26 -13,-38l-5 -8c-11,-14 -25,-25 -41,-32 -9,-5 -21,-8 -31,-9l-4 -1c0,0 0,0 -1,0l-6 0c-8,0 -14,-1 -22,-1 -52,0 -104,-5 -156,-5l-267 -9c-30,-1 -58,-2 -89,-3 -16,-1 -28,1 -45,5 -15,4 -32,8 -49,20z"/>
   <path class="fil1" d="M8000 6744l216 0c49,1 73,-20 73,-70l0 -218c127,0 254,0 381,0 24,0 71,-4 90,5 22,11 33,30 33,62l0 859c0,34 3,60 -17,80 -20,20 -44,17 -78,17l-476 0c-33,0 -166,5 -187,-5 -22,-10 -35,-28 -35,-60 0,-221 -3,-451 0,-670zm137 225l520 0 0 -39 -520 -1 0 40zm0 -106l520 0 -1 -40 -519 0 0 40zm0 212l519 0 1 -39 -520 -1 0 40zm0 212l520 0 -1 -40 -519 0 0 40zm0 -106l519 0 1 -40 -520 0 0 40zm-94 338l712 0 8 -3c36,-13 63,-38 69,-79 4,-21 1,-729 1,-787 0,-37 5,-125 -1,-156 -12,-61 -61,-69 -79,-78l-513 0c-6,10 -34,35 -44,46 -73,72 -158,160 -230,229 -11,10 -7,20 -7,39l0 505c0,60 -2,124 0,183 2,32 9,49 25,68 24,27 41,25 59,33z"/>
   <path class="fil1" d="M8196 9240c-17,13 -341,-2 -359,-13 11,-9 221,5 265,6l73 2c2,0 10,0 12,1 7,1 7,2 9,4zm1200 -86l0 23c30,-6 44,-16 0,-23zm-477 78c41,-1 83,-3 123,-7 20,-1 42,-3 61,-5 36,-4 52,-3 52,-17l1 -67c0,-14 2,-18 -13,-20 -226,-27 -458,-23 -686,-20l1 139c154,1 306,4 461,-3zm-1107 -120c-39,-4 -81,19 -80,54 1,33 45,58 81,52l-1 -106zm1578 42l-220 -35 0 91 221 -31 -1 -25zm-1567 -45c-5,140 -5,131 66,138 85,9 299,28 375,8 20,-5 24,-14 35,-17 15,-4 101,4 146,-5l0 -137c-150,-7 -319,0 -471,6 -25,1 -51,3 -78,4 -25,0 -45,2 -73,3z"/>
   <rect class="fil0" width="4825" height="4825"/>
   <path class="fil1" d="M2580 1185l0 953c0,25 -6,17 -42,17 -119,0 -926,3 -959,-1 -4,-32 11,-36 29,-53l28 -28c0,-1 1,-1 1,-2l55 -54c0,-1 1,-1 1,-2l45 -44c29,-27 62,-63 91,-92 0,0 1,-1 1,-1 1,-1 4,-4 4,-4l231 -230c3,-3 6,-6 9,-9l134 -134c2,-3 5,-5 8,-8l8 -7c3,-4 5,-6 8,-10l64 -63c3,-3 5,-5 8,-8 0,-1 1,-1 1,-2l35 -34c2,-3 1,-2 3,-4l56 -55c19,-23 64,-64 88,-88l51 -52c10,-10 22,-23 37,-12 7,5 6,17 5,27zm-864 942c0,-13 -2,-27 3,-39 21,-3 14,9 16,37l18 0c1,-19 -5,-26 7,-39 6,6 5,-6 5,7 4,7 2,24 2,35l23 -1 1 -37c14,5 8,16 10,38l21 -1c1,-13 1,-25 0,-38 0,-6 0,-12 0,-18 0,-3 0,-7 1,-10 1,-6 1,-4 3,-7 4,6 4,7 4,20l0 53 21 0c1,-12 -3,-29 3,-39 10,1 8,4 8,16 0,8 -1,15 0,24l23 0c1,-9 0,-16 1,-24 0,-11 1,-9 7,-14 8,10 2,13 3,28 2,14 6,10 23,10 0,-8 -3,-51 8,-37 6,6 2,17 3,27 1,14 6,10 22,10 1,-16 1,-31 1,-47 0,-16 -6,-30 10,-29 4,64 -12,79 19,75 1,-16 -1,-25 4,-41l15 2 0 38 18 0c0,-33 -5,-28 5,-32 2,-5 -1,-3 4,-5 6,13 3,21 4,38l24 0 2 -37 9 1 1 37 22 -2c0,-13 1,-25 0,-37 0,-13 -2,-27 5,-35 0,1 1,2 1,3 0,0 1,1 1,2l2 68 18 -1 1 -27c1,-5 0,-3 2,-6 10,7 4,11 6,35l25 -1c0,-7 0,-13 0,-20 1,-15 -2,-10 5,-14 8,5 6,3 6,16 0,6 0,11 0,18l22 0 2 -39 9 3 1 37 21 -2c1,-17 -5,-61 3,-73 8,4 5,3 6,15l0 59 20 1c0,-8 0,-15 0,-21 0,-14 -2,-10 5,-14 9,5 4,14 6,34l23 1c1,-18 -5,-37 11,-38l1 38 21 0c2,-18 -5,-38 11,-38l1 37c30,2 23,0 23,-30 0,-34 -4,-40 8,-44 6,12 2,57 3,75l22 -1c2,-35 -5,-29 8,-36 5,9 2,25 3,37l26 -2c1,-17 -3,-37 7,-36 8,4 4,28 4,38l22 -1 3 -38c13,6 7,20 9,39 30,0 22,-4 22,-36 0,-27 -5,-43 10,-42l1 78 49 -1c1,-15 2,-59 -1,-72 -11,-1 -26,3 -35,-4 7,-5 6,-4 16,-4 3,0 12,0 14,0 9,-3 7,-14 6,-25 -18,-2 -36,5 -37,-11l38 -3 0 -20c-20,-4 -30,4 -34,-7 5,-9 14,0 35,-6l-1 -19c-25,-3 -63,3 -73,-5l11 -3c45,-5 63,15 61,-20l-36 -3c3,-9 2,-9 13,-9 9,-1 14,0 24,-1l0 -21c-26,-6 -31,4 -36,-7 4,-9 11,-4 36,-6l0 -20c-30,-5 -37,6 -38,-12l38 -1 -1 -21 -66 -1c-8,-3 -3,2 -6,-6 4,-7 -1,-5 13,-5 6,0 15,0 21,0 13,0 26,1 38,-1 1,-27 -2,-19 -23,-20 -14,-1 -10,0 -13,-7 5,-9 15,-2 36,-6l0 -21c-18,-2 -37,3 -37,-6 0,-11 23,-4 38,-8l0 -19c-20,-4 -30,3 -35,-7 4,-8 16,-4 35,-5l-1 -22c-12,-1 -25,-1 -38,-1 -30,0 -30,4 -34,-5 3,-6 -1,-2 6,-4 7,-3 49,2 67,-2l0 -15c-9,-1 -11,0 -19,0 -7,0 -11,0 -16,-4 9,-6 23,-2 35,-5l0 -24c-8,-2 -11,-1 -19,-2 -17,0 -14,-2 -15,-5 4,-8 15,-4 34,-6l-1 -21 -37 -2c5,-13 20,-8 38,-10l-1 -17c-13,-2 -27,-1 -41,-1 -34,0 -27,3 -31,-7 11,-8 50,0 73,-5l0 -19c-14,-1 -32,2 -34,-4 0,-14 5,-4 33,-9l0 -19c-10,-3 -29,1 -37,-6l0 -5c9,-6 26,-2 37,-4 1,-14 5,-19 -7,-21 -4,-1 -12,1 -16,0 -17,-1 -8,1 -10,-6 4,-8 25,-4 33,-5 2,-29 -2,-22 -30,-22 -8,0 -45,4 -45,-6 0,-9 67,-4 75,-5 1,-16 5,-21 -10,-22 -10,-1 -18,2 -27,-4 3,-12 20,-5 38,-7l-1 -23c-15,-1 -29,4 -34,-5 4,-7 -5,-4 11,-6 4,0 12,1 16,0 11,-2 8,-8 7,-22 -17,-1 -29,5 -33,-6 3,-6 -1,-2 6,-4 8,-3 18,-1 28,-2l-1 -21c-12,-1 -25,-1 -38,-1 -22,0 -30,5 -34,-5 7,-13 45,1 73,-7l0 -76c-11,0 -13,9 -19,16l-125 125c-8,9 -19,17 -29,28l-198 199c0,0 -1,1 -1,1l-68 68c0,1 -1,1 -1,2l-74 72c-5,5 -10,11 -15,16 0,0 0,1 -1,1l-13 13c-5,4 -10,9 -14,14l-14 14c-6,5 -10,9 -15,15l-206 206c-35,35 -45,42 -79,78 -2,3 -5,6 -7,8 -2,2 -1,2 -4,4l-6 6c-2,2 -1,2 -4,4 -4,4 -4,3 -7,6 -3,3 -5,4 -7,8 -6,8 -2,-2 -5,9l82 -1zm726 -509c0,80 4,377 -4,407 -60,3 -120,2 -179,2l-348 -1c-20,-29 3,-34 38,-72l20 -19c6,-8 10,-11 16,-17l260 -260c0,-1 1,-1 1,-1l157 -158c12,-12 13,-13 33,-12 3,10 6,0 6,29l0 102zm-36 373l-442 1 14 -17c0,-1 1,-1 1,-2l65 -65c1,0 1,-1 2,-1l56 -56c0,-1 1,-1 1,-2l136 -136c0,0 1,0 1,-1l18 -18c1,-1 2,-2 4,-4 0,0 1,0 1,-1l4 -4c0,0 1,-1 1,-1l68 -68c1,0 1,-1 2,-1l56 -56c9,-9 6,-8 13,-10 1,18 4,419 -1,442z"/>
   <g>
    <path class="fil1" d="M1056 1515c-32,28 -80,27 -107,-5l-11 -12c-28,-34 -34,-108 -1,-136l10 -8c62,-53 173,107 109,161zm-476 -54c-15,13 -22,20 -41,25 -7,1 -8,1 -15,1l-15 -1c-42,-7 -72,-48 -52,-97 30,-74 129,-129 158,-44 11,32 -2,88 -35,116zm198 -360c-6,-7 -11,-13 -12,-23 0,-39 70,-35 63,3 -4,27 -37,37 -51,20zm-35 -98c-3,-10 -9,-23 -14,-34 -6,-14 -11,-24 -17,-37l-163 -364c-18,-41 -49,-108 -9,-142 10,14 121,271 129,290l64 145c11,25 21,48 33,74 10,21 12,21 -23,68zm-59 64c-25,21 -47,38 -61,60 -17,30 -18,38 -26,65 -3,13 -7,9 -27,16 -92,30 -164,80 -195,174 -11,35 -14,99 16,136 22,25 27,30 60,43 46,18 114,9 153,-24 45,-38 69,-73 82,-129 6,-29 13,-91 -11,-120 -14,-16 -11,-15 -26,-26 7,-10 14,-31 22,-45 15,-27 19,-35 42,-54 20,-17 17,9 61,12 14,0 51,-2 63,0 14,2 18,6 27,19 19,28 31,68 38,98 -10,7 -7,2 -22,15 -81,68 -31,342 158,309 73,-13 116,-83 114,-149 -4,-101 -64,-164 -151,-210 -11,-6 -26,-12 -35,-19 -10,-87 -18,-86 -80,-159 -8,-9 -17,-19 -22,-28 -4,-9 -8,-20 -12,-27l-76 -161c-8,-17 -16,-36 -25,-54 -32,-73 -65,-143 -96,-215 -15,-36 -29,-69 -43,-106 -14,-34 -31,-87 -55,-114 -22,-27 -112,49 -119,101 -6,43 148,378 167,422l79 170z"/>
    <path class="fil1" d="M828 876c5,8 7,17 11,26 3,7 6,17 11,25l72 -110c58,-87 144,-222 203,-303 10,-14 11,-15 25,-13 4,8 6,9 5,17 -5,39 -126,212 -155,259 -37,60 -83,126 -122,187 -7,11 -8,9 -5,19l37 75c15,-13 134,-198 149,-222 16,-24 33,-50 47,-74 22,-36 124,-196 129,-224 5,-26 -8,-57 -27,-82l-17 -21c-23,-22 -46,-36 -56,-28 -24,20 -88,135 -112,175 -12,19 -183,283 -195,294z"/>
   </g>
   <path class="fil1" d="M775 1949l209 120 205 119c28,16 33,21 33,52l0 242 0 236c0,32 -1,39 -29,55l-209 121 -205 118c-27,16 -34,19 -62,3l-209 -121 -205 -118c-27,-16 -33,-21 -33,-53l0 -241 0 -237c0,-32 2,-39 29,-55l209 -121 205 -118c28,-16 35,-18 62,-2z"/>
   <path class="fil2" d="M780 1940l209 120 0 0 205 119 0 0c15,8 25,14 31,23 6,10 8,20 8,38l0 242 0 236c0,18 -1,29 -6,38 -5,10 -13,17 -29,26l-209 121 0 0 -205 118c-15,9 -24,14 -35,15 -11,0 -21,-3 -37,-12l-209 -121 0 0 -205 -118c-15,-9 -24,-15 -30,-24 -7,-9 -8,-20 -8,-38l0 -241 0 -237c0,-17 0,-28 5,-38 5,-10 13,-17 29,-26l209 -121 0 0 205 -118c15,-9 25,-14 35,-14 12,-1 22,3 37,12l0 0zm199 138l-209 -120 0 0c-12,-7 -19,-10 -25,-10 -7,1 -14,5 -27,12l-205 118 0 0 -209 121c-12,7 -18,12 -20,17 -3,6 -4,15 -4,29l0 237 0 241c0,14 1,21 5,27 3,5 11,9 23,17l205 118 0 0 209 121c12,7 19,9 25,9 7,0 15,-4 27,-12l205 -118 0 0 209 -121c12,-7 18,-11 21,-17 3,-5 3,-14 3,-29l0 -236 0 -242c0,-13 -1,-21 -5,-26 -3,-6 -11,-10 -23,-17l0 0 -205 -119 0 0z"/>
   <path class="fil0" d="M775 1949l209 120 205 119c21,12 29,18 32,34 -2,13 -9,20 -28,31l-209 121 -205 118c-27,16 -34,18 -62,2l-209 -120 -205 -119c-21,-12 -29,-18 -32,-34 3,-13 9,-20 28,-31l209 -121 205 -118c28,-16 35,-18 62,-2z"/>
   <path class="fil2" d="M780 1940l209 120 0 0 205 119c12,6 19,11 25,17 7,6 11,13 12,24l0 3c-1,9 -4,16 -10,22l0 0c-5,6 -12,11 -23,17l0 0 -209 121 0 0 -205 118 0 0c-15,9 -24,14 -35,14 -11,1 -21,-3 -37,-12l0 0 -209 -120 0 0 -205 -119 0 0c-11,-6 -19,-11 -25,-17 -7,-6 -10,-14 -12,-24l0 -3c2,-9 4,-16 10,-22l0 0c5,-6 12,-11 23,-17l0 0 209 -121 0 0 205 -118c15,-9 25,-14 35,-14 12,-1 22,3 37,12l0 0zm199 138l-209 -120 0 0c-12,-7 -19,-10 -25,-10 -7,1 -14,5 -27,12l-205 118 0 0 -209 121 0 0c-8,5 -14,9 -17,13l0 0c-3,2 -4,5 -5,9 1,5 3,8 6,11 4,5 11,9 20,14l0 0 205 119 0 0 209 120 0 0c12,7 19,10 25,10 7,-1 15,-5 27,-12l0 0 205 -118 0 0 209 -121 0 0c9,-5 14,-9 18,-13l0 0c2,-2 4,-6 5,-9 -2,-5 -3,-9 -6,-11 -4,-5 -11,-9 -21,-14l-205 -119 0 0z"/>
   <path class="fil3" d="M775 1949l209 120 205 119c21,12 29,18 32,34 -2,13 -9,20 -28,31l-209 121 -205 118c-14,8 -23,13 -32,13l0 -567c8,0 16,4 28,11z"/>
   <path class="fil0" d="M790 1921l389 186c45,21 55,42 44,74l-160 414 -486 -237c53,-130 107,-287 166,-411 10,-21 26,-36 47,-26z"/>
   <path class="fil2" d="M794 1911l390 186 0 0c24,12 39,24 47,38 8,14 8,31 2,50l0 0 -160 414 -4 10 -10 -5 -487 -237 -9 -4 4 -9c19,-45 36,-91 54,-138 36,-94 74,-191 113,-273 6,-14 14,-25 25,-31 11,-6 22,-7 35,-1l0 0zm381 205l-390 -186 1 0c-7,-3 -12,-2 -17,0 -6,4 -12,12 -17,21 -39,83 -76,179 -112,273 -17,45 -34,89 -50,129l468 228 156 -403 0 0c4,-13 4,-24 -1,-33 -6,-10 -18,-19 -38,-29l0 0z"/>
   <path class="fil0" d="M467 2102l0 95 0 98 138 79 205 118c15,9 24,14 33,14l0 183 67 38c15,9 24,14 33,14l0 -363c0,-33 -7,-48 -31,-64l-207 -119 -209 -121c-26,-15 -29,0 -29,28z"/>
   <path class="fil2" d="M477 2102l0 95 0 92 133 76 0 0 205 119c7,4 12,7 17,9 4,2 8,2 11,2l10 0 0 11 0 177 62 35c7,4 13,8 18,10l0 0 0 -350c0,-15 -1,-26 -5,-34 -4,-8 -11,-14 -22,-21l0 0 -206 -119 0 0 -210 -121c-7,-4 -10,-5 -10,-5l0 0c-2,3 -3,12 -3,24zm-20 95l0 -95c0,-16 1,-29 7,-36l0 0c7,-10 19,-12 37,-1l209 121 0 0 207 119 0 0c14,9 23,18 29,30 6,11 8,25 8,43l0 363 0 10 -10 0c-7,0 -13,-1 -19,-4 -6,-2 -12,-6 -20,-11l-67 -38 -5 -3 0 -6 0 -174c-3,-1 -6,-2 -9,-3 -5,-2 -12,-6 -20,-11l-205 -118 0 0 -137 -79 -5 -3 0 -6 0 -98z"/>
   <path class="fil0" d="M382 2087l0 139 0 46 177 102 205 118c15,9 24,14 34,14l0 235 27 16c15,8 24,13 33,13l0 -363c0,-33 -6,-48 -31,-63l-207 -120 -238 -137z"/>
   <path class="fil2" d="M392 2105l0 121 0 40 172 99 0 0 205 119c7,4 13,7 18,9 4,2 7,2 10,2l11 0 0 11 0 229 22 13 0 0c7,4 13,7 18,9l0 0 0 -350c0,-15 -1,-25 -5,-33 -4,-8 -11,-15 -22,-22l-206 -119 -223 -128zm-20 121l0 -139 0 -18 15 9 238 137 207 120 0 0c14,9 23,18 29,29 6,12 8,25 8,43l0 363 0 10 -10 0c-7,0 -13,-1 -19,-4 -6,-2 -12,-6 -20,-10l0 0 -28 -16 -5 -3 0 -6 0 -226c-2,-1 -5,-2 -8,-3 -6,-2 -12,-6 -20,-11l-205 -118 0 0 -177 -102 -5 -3 0 -6 0 -46z"/>
   <path class="fil0" d="M286 2090l0 154c3,3 8,6 14,9l209 121 205 118c15,9 24,14 33,14l0 289c6,2 10,3 15,3l0 -363c0,-36 -8,-50 -39,-68l-153 -88 0 -42c0,-34 -14,-49 -45,-68l-209 -120c-30,-15 -30,5 -30,41z"/>
   <path class="fil2" d="M296 2090l0 149c0,0 1,1 2,1 2,1 4,3 7,4l0 0 209 121 0 0 205 119c7,4 13,7 18,9 4,2 7,2 10,2l5 0 0 -60c0,-16 -2,-27 -7,-36 -5,-8 -13,-15 -27,-23l-153 -88 -6 -4 0 -5 0 -42c0,-15 -2,-25 -8,-34 -7,-9 -17,-16 -32,-25l-207 -120c-9,-4 -13,-5 -13,-3 -3,5 -3,18 -3,35zm-21 154l0 -154c0,-20 0,-35 5,-45 7,-13 19,-16 41,-5l1 0 208 121c17,9 29,18 37,30 9,12 13,26 13,46l0 36 148 85c17,10 28,19 35,31 7,12 9,26 9,46l0 363 0 10 -10 0c-3,0 -6,0 -9,-1 -3,-1 -6,-2 -10,-3l-6 -3 0 -6 0 -280c-3,-1 -5,-2 -8,-3 -6,-2 -12,-6 -20,-11l-205 -118 0 0 -209 -121 0 0c-4,-1 -6,-3 -9,-5 -2,-1 -5,-3 -7,-5l-4 -3 0 -5z"/>
   <path class="fil0" d="M1221 2221c1,5 1,12 1,19l0 242 0 236c0,32 -1,39 -29,55l-209 121 -205 118c-15,9 -24,14 -33,13l0 -520c9,0 18,-4 33,-13l205 -118 209 -121c19,-11 26,-18 28,-31l0 -1 0 0 0 0z"/>
   <path class="fil2" d="M1231 2220c1,3 1,6 1,9 1,4 1,7 1,11l0 242 0 236c0,18 -1,29 -6,38 -5,10 -13,17 -29,26l-209 121 0 0 -205 118c-8,5 -14,8 -20,11 -6,3 -12,4 -18,4l-11 0 0 -11 0 -520 0 -10 11 0c3,0 6,-1 10,-3 5,-2 11,-5 18,-9l0 0 205 -118 0 0 209 -121 0 0c9,-5 14,-9 18,-13l0 0c3,-3 4,-6 5,-11l9 1 11 -1 0 0 0 0zm-19 262l0 -229c-4,3 -8,6 -14,9l0 0 -209 121 0 0 -205 118 0 0c-8,4 -14,8 -20,10 -2,2 -5,3 -8,3l0 499 0 0c5,-2 11,-6 18,-10l205 -118 0 0 209 -121c12,-7 18,-11 21,-17 3,-5 3,-14 3,-29l0 -236z"/>
   <g>
    <path class="fil1" d="M2036 3948l0 -1081c0,-55 44,-98 98,-98l472 0c54,0 97,43 97,98l0 1081c0,54 -43,98 -97,98l-472 0c-54,0 -98,-44 -98,-98zm-51 -1093l0 1104c0,37 23,75 43,95 21,21 55,43 95,43l494 0c39,0 73,-22 95,-43 20,-20 43,-58 43,-95l0 -1104c0,-68 -69,-138 -138,-138l-494 0c-69,0 -138,70 -138,138z"/>
    <path class="fil1" d="M2100 2890l540 0 0 931 -540 0 0 -931zm-29 -12l0 949c0,14 9,23 23,23l552 0c13,0 23,-9 23,-23l0 -949c0,-13 -4,-17 -17,-17l-564 0c-13,0 -17,4 -17,17z"/>
    <path class="fil1" d="M2324 3948c0,-80 92,-53 92,-17 0,94 -92,69 -92,17zm-29 -12c0,79 73,107 123,66 51,-40 30,-135 -54,-135 -34,0 -69,35 -69,69z"/>
    <path class="fil1" d="M2307 2826l126 0c18,0 16,-6 17,-23l-161 0c2,17 0,23 18,23z"/>
   </g>
   <g>
    <path class="fil1" d="M3411 502l72 0 -223 489 950 0 -221 -489 73 0c7,0 7,-1 12,7l288 533c57,109 35,145 -54,145l-565 0 -13 0 -566 0c-89,0 -110,-36 -54,-145l289 -533c4,-8 5,-7 12,-7z"/>
    <path class="fil1" d="M3411 436l319 0 13 0 319 0c7,0 7,-1 12,3l288 241c57,49 35,65 -54,65l-565 0 -13 0 -566 0c-89,0 -110,-16 -54,-65l289 -241c4,-4 5,-3 12,-3z"/>
    <path class="fil1" d="M4380 714c31,34 4,46 -73,46l-564 0 -13 0 -565 0c-77,0 -103,-12 -72,-46 -7,21 21,29 82,29l555 0 13 0 554 0c61,0 90,-8 83,-29z"/>
   </g>
   <g>
    <path class="fil1" d="M1007 4368c17,-10 345,-4 411,-4l102 -1c22,0 21,-4 27,9 1,17 -1,12 -47,12l-476 0c-24,-3 -15,3 -17,-16zm-64 -908c10,0 18,8 18,18 0,10 -8,18 -18,18 -10,0 -18,-8 -18,-18 0,-10 8,-18 18,-18zm-604 899c7,0 12,6 12,13 0,7 -5,12 -12,12 -7,0 -13,-5 -13,-12 0,-7 6,-13 13,-13zm-39 0c7,0 12,6 12,13 0,7 -5,12 -12,12 -7,0 -13,-5 -13,-12 0,-7 6,-13 13,-13zm-39 0c7,0 13,6 13,13 0,7 -6,12 -13,12 -7,0 -13,-5 -13,-12 0,-7 6,-13 13,-13zm279 25c-14,0 -21,0 -26,-1l-7 -4c0,-1 -1,-1 -2,-2l1 -9c12,-7 13,-5 34,-5 17,0 17,-2 29,5 -2,22 2,16 -29,16zm-323 -69c-37,42 -10,108 73,100 34,-1 68,0 101,0l1219 0c100,6 86,-91 36,-108l-129 -43c-9,-4 -19,-6 -29,-6l-63 0 -1 -3 92 -1 -2 -798c-8,-7 -8,-7 -33,-7 -163,1 -1084,-4 -1111,2l0 802 92 -1 0 7 -91 2c-20,2 -124,43 -154,54zm1240 -501l-1 378 -2 1 -1026 -1 0 -685 1031 1 -2 306zm-979 547l-1 21 -52 2c-14,-5 -6,1 -11,-12 9,-16 5,-7 64,-9l0 -2zm-48 -57l-117 0c55,-28 172,-19 241,-19l716 0c31,0 30,3 45,18l-329 1 -556 0zm902 -18c67,-3 182,-6 236,18l-188 0c-30,1 -35,-1 -48,-18zm-30 -26l-705 -1 1 -9 703 1 1 9z"/>
    <circle class="fil1 str0" cx="943" cy="3478" r="18"/>
   </g>
   <g>
    <path class="fil1" d="M4096 3379c8,3 10,6 15,10l13 17c-8,-4 -25,-18 -28,-27 -6,-3 -23,-16 -25,-26 -6,-3 -23,-16 -26,-26 -9,-4 -24,-16 -25,-25 6,3 10,6 14,10 7,6 8,6 11,15 7,3 10,7 15,11 7,6 8,5 11,15 7,3 10,6 15,11 7,6 7,5 10,15z"/>
    <path class="fil1" d="M3733 3497c-13,-8 -13,-4 -16,-16 5,2 6,1 9,4 7,7 1,0 7,12z"/>
    <path class="fil1" d="M3872 3635c6,3 22,16 25,26 -7,-3 -10,-7 -15,-11 -7,-6 -7,-5 -10,-15z"/>
    <path class="fil1" d="M3846 3609c6,3 23,17 26,26 -8,-3 -10,-6 -16,-11 -7,-6 -7,-5 -10,-15z"/>
    <path class="fil1" d="M3820 3584c6,3 23,16 26,25 -7,-2 -10,-6 -15,-10 -7,-6 -8,-5 -11,-15z"/>
    <path class="fil1" d="M3794 3558c7,3 23,16 26,26 -7,-3 -10,-6 -15,-11 -7,-6 -7,-5 -11,-15z"/>
    <path class="fil1" d="M3769 3532c6,3 23,17 25,26 -7,-3 -9,-6 -15,-10 -7,-6 -7,-6 -10,-16z"/>
    <path class="fil1" d="M3739 3502c8,6 27,22 30,30 -8,-3 -10,-6 -17,-12 -8,-6 -9,-6 -13,-18z"/>
    <path class="fil1" d="M3739 3497l0 5c-7,0 0,6 -6,-1 4,-5 -2,-5 6,-4z"/>
    <path class="fil1" d="M3753 3485c-4,9 -12,11 -12,11 0,-1 -1,1 -2,1 5,-9 -1,-2 5,-8 1,-1 4,-2 4,-3 1,0 2,0 2,-1 1,-1 2,0 3,0z"/>
    <path class="fil1" d="M4070 3645c3,-9 26,-30 36,-39 8,-8 9,-9 18,-17l17 -18c5,-5 6,-4 11,-9 16,-15 52,-54 65,-61 -12,23 -24,26 -34,38l-31 30c-20,22 -14,9 -35,35 0,1 -1,2 -1,2 -1,1 -1,2 -2,2l-22 23c-20,22 -9,18 -22,14z"/>
    <path class="fil4" d="M4063 3650c1,-1 1,-2 2,-2 6,-4 -2,0 5,-3 -1,11 -3,11 -12,16"/>
    <path class="fil1" d="M3949 3712c-8,-3 -10,-6 -15,-11 -7,-6 -8,-5 -11,-15 -7,-3 -10,-6 -15,-10 -7,-6 -8,-5 -11,-15 6,3 23,16 26,25 6,3 23,16 26,26z"/>
    <path class="fil4" d="M3959 3725c-9,-6 -8,-5 -10,-13 9,4 7,3 12,11"/>
    <path class="fil1" d="M3853 3196c-31,1 -19,22 -22,90l-172 0 -1 -50 -129 0 1 51 -8 0 -21 1 -1 -29 -117 1 -1 25c-44,6 -66,12 -86,41 -18,26 -19,74 -15,110l29 0 3 -1c1,1 312,5 330,1 9,-1 5,1 10,-4l7 -7c4,-3 4,-2 7,-7 21,-23 48,-43 81,-57 86,-36 207,-13 265,62 5,6 7,12 16,14l225 -1c7,-63 2,-117 -56,-143 -21,-10 -37,-5 -59,-8l-2 -67c0,-20 -15,-25 -46,-25l-238 3z"/>
    <polygon class="fil1" points="4012,3222 4025,3222 4103,3222 4104,3231 4104,3286 4000,3286 3867,3286 3868,3222 3931,3222 3944,3222 "/>
    <path class="fil1" d="M4041 3692c-6,11 -12,20 -19,29 -12,16 -32,35 -49,47 -40,28 -91,46 -152,42 -177,-13 -260,-180 -196,-333l-345 0c0,58 -7,300 8,337 23,53 71,54 115,54l769 0c30,-3 40,-15 56,-26 4,-5 8,-9 12,-15 4,-5 4,-8 9,-12l5 -25c4,-10 6,-296 1,-315l-205 1 2 5c8,29 17,45 19,80 3,45 -8,93 -30,131z"/>
    <path class="fil1" d="M4021 3518c-12,-38 -31,-64 -56,-85 -30,-27 -79,-46 -119,-49 -64,0 -112,26 -144,56 -34,33 -56,80 -57,147l1 7c16,140 157,213 274,157 88,-42 131,-139 101,-233z"/>
    <path class="fil1" d="M4031 3794l-32 -27c-10,-11 -3,1 -7,-13 12,6 32,27 39,40z"/>
   </g>
   <path class="fil1" d="M1786 566c-21,14 -35,27 -47,49 -21,39 -19,102 6,138 28,41 53,52 94,63 3,1 5,2 8,3 4,0 5,0 9,0 3,1 5,1 9,2 6,0 11,0 18,0l106 3c60,2 119,4 178,4 31,0 123,6 144,3 -4,-11 3,-33 -1,-44 -4,-2 -26,-2 -32,-2l-34 -1c-75,-2 -156,-5 -231,-6 -12,0 -22,0 -34,-1 -37,-1 -98,2 -132,-6 -4,-1 -11,-3 -15,-5 -6,-2 -11,-5 -16,-7 -37,-19 -47,-57 -44,-92 0,-8 3,-16 5,-23 2,-4 1,-5 3,-9 13,-25 44,-39 70,-45 21,-5 40,-3 61,-2 7,1 13,1 21,1 34,0 67,4 101,4l82 2c8,0 13,0 21,1l142 5c28,0 125,2 143,5 35,7 53,33 47,68 -1,7 -2,14 -5,21 -15,33 -53,31 -82,30l-212 -6c-6,0 -10,0 -16,0l-98 -2c-21,-1 -80,0 -97,-5 -17,-6 -37,-13 -35,-35 2,-21 33,-29 48,-29l258 9c2,-7 2,-37 2,-46 -35,0 -95,-4 -130,-5l-130 -5c-8,0 -18,2 -26,4 -13,3 -32,10 -42,20 -29,25 -34,65 -18,89 12,17 21,26 39,35 16,8 35,12 52,12 67,0 133,5 199,5l126 3c26,2 94,4 118,2 35,-2 67,-21 84,-52 12,-22 14,-47 12,-71 -2,-14 -6,-27 -13,-39l-6 -8c-10,-14 -24,-25 -40,-32 -10,-5 -21,-8 -31,-9l-4 -1c0,0 -1,0 -1,0l-7 0c-8,0 -14,-1 -21,-1 -52,0 -105,-5 -156,-5l-267 -9c-30,-1 -59,-2 -89,-3 -16,-1 -29,1 -46,5 -15,4 -31,9 -48,20z"/>
   <path class="fil1" d="M3201 1937l216 1c49,0 73,-21 72,-71l0 -218c127,0 255,0 382,0 24,0 70,-4 90,5 22,11 33,30 33,62l0 859c0,34 3,60 -17,80 -20,20 -45,17 -79,17l-475 0c-34,0 -166,5 -187,-5 -22,-9 -35,-27 -35,-60 0,-221 -3,-451 0,-670zm136 225l520 0 0 -39 -520 -1 0 40zm0 -106l520 0 0 -40 -519 0 -1 40zm1 212l519 0 0 -39 -520 -1 1 40zm-1 212l520 0 0 -40 -519 0 -1 40zm0 -106l520 0 0 -40 -519 0 -1 40zm-93 338l711 0 9 -3c36,-13 63,-38 69,-79 3,-21 1,-729 1,-787 0,-37 4,-124 -1,-155 -12,-62 -62,-69 -79,-79l-513 0c-6,10 -34,35 -45,46 -72,73 -157,160 -229,229 -11,10 -7,20 -7,39l0 505c0,60 -2,124 0,183 1,32 9,49 25,68 23,27 41,25 59,33z"/>
   <path class="fil1" d="M3396 4433c-16,14 -340,-2 -359,-13 12,-8 222,5 266,6l73 2c2,0 10,0 11,1 8,2 7,2 9,4zm1200 -85l1 22c29,-6 43,-16 -1,-22zm-477 78c42,-2 83,-4 124,-7 20,-2 41,-4 61,-6 35,-4 52,-3 52,-17l0 -67c0,-14 3,-18 -12,-20 -227,-27 -458,-23 -686,-20l0 139c155,1 306,4 461,-2zm-1106 -121c-39,-4 -81,19 -80,54 0,33 45,58 81,52l-1 -106zm1578 42l-220 -35 -1 91 221 -31 0 -25zm-1567 -45c-5,140 -5,132 66,139 85,8 299,27 375,8 20,-6 24,-15 34,-18 15,-4 101,4 146,-5l0 -137c-149,-7 -318,1 -470,6 -26,1 -52,3 -78,4 -25,1 -45,2 -73,3z"/>
   <rect class="fil0" x="4799" width="4825" height="4825"/>
   <path class="fil1" d="M7380 1185l0 953c0,25 -7,17 -43,17 -119,0 -926,3 -958,-1 -4,-32 11,-36 28,-53l28 -28c0,-1 1,-1 1,-2l55 -54c1,-1 1,-1 2,-2l45 -44c29,-27 62,-63 90,-92 1,0 1,-1 2,-1 1,-1 3,-4 4,-4l230 -230c4,-3 6,-6 9,-9l134 -134c3,-3 5,-5 8,-8l8 -7c3,-4 5,-6 8,-10l65 -63c2,-3 4,-5 7,-8 1,-1 1,-1 1,-2l35 -34c3,-3 1,-2 4,-4l55 -55c19,-23 64,-64 88,-88l51 -52c11,-10 23,-23 37,-12 8,5 6,17 6,27zm-865 942c0,-13 -2,-27 4,-39 21,-3 13,9 15,37l19 0c0,-19 -6,-26 6,-39 6,6 5,-6 5,7 4,7 2,24 3,35l22 -1 2 -37c13,5 7,16 9,38l22 -1c0,-13 0,-25 0,-38 0,-6 -1,-12 0,-18 0,-3 0,-7 1,-10 1,-6 0,-4 2,-7 5,6 4,7 4,20l0 53 21 0c1,-12 -2,-29 4,-39 9,1 7,4 7,16 0,8 0,15 0,24l24 0c0,-9 0,-16 0,-24 1,-11 1,-9 7,-14 8,10 2,13 4,28 1,14 6,10 22,10 0,-8 -3,-51 8,-37 6,6 2,17 3,27 2,14 6,10 22,10 1,-16 1,-31 1,-47 0,-16 -5,-30 10,-29 4,64 -12,79 20,75 0,-16 -2,-25 3,-41l15 2 1 38 17 0c0,-33 -4,-28 5,-32 2,-5 -1,-3 4,-5 6,13 3,21 4,38l25 0 1 -37 10 1 1 37 22 -2c0,-13 0,-25 0,-37 0,-13 -3,-27 4,-35 1,1 1,2 1,3 0,0 1,1 1,2l2 68 18 -1 1 -27c1,-5 0,-3 3,-6 9,7 3,11 5,35l25 -1c1,-7 0,-13 1,-20 0,-15 -3,-10 5,-14 7,5 5,3 5,16 0,6 0,11 0,18l23 0 2 -39 9 3 1 37 20 -2c1,-17 -4,-61 4,-73 7,4 5,3 5,15l0 59 20 1c0,-8 0,-15 0,-21 1,-14 -2,-10 5,-14 9,5 5,14 6,34l23 1c2,-18 -4,-37 11,-38l1 38 21 0c2,-18 -5,-38 12,-38l1 37c30,2 23,0 23,-30 0,-34 -5,-40 7,-44 6,12 2,57 3,75l22 -1c3,-35 -4,-29 9,-36 4,9 1,25 2,37l27 -2c0,-17 -4,-37 6,-36 8,4 4,28 5,38l21 -1 3 -38c13,6 8,20 9,39 30,0 22,-4 22,-36 0,-27 -4,-43 11,-42l1 78 48 -1c2,-15 3,-59 -1,-72 -10,-1 -26,3 -35,-4 7,-5 6,-4 16,-4 3,0 12,0 15,0 9,-3 6,-14 6,-25 -19,-2 -36,5 -37,-11l38 -3 -1 -20c-20,-4 -30,4 -34,-7 5,-9 15,0 35,-6l-1 -19c-25,-3 -63,3 -73,-5l11 -3c45,-5 63,15 62,-20l-36 -3c2,-9 2,-9 12,-9 9,-1 15,0 24,-1l0 -21c-25,-6 -31,4 -36,-7 4,-9 11,-4 36,-6l0 -20c-30,-5 -37,6 -37,-12l37 -1 -1 -21 -66 -1c-7,-3 -3,2 -6,-6 4,-7 0,-5 14,-5 6,0 14,0 20,0 13,0 26,1 38,-1 1,-27 -1,-19 -23,-20 -14,-1 -10,0 -13,-7 5,-9 15,-2 36,-6l0 -21c-18,-2 -36,3 -37,-6 0,-11 23,-4 38,-8l1 -19c-21,-4 -30,3 -35,-7 4,-8 15,-4 34,-5l0 -22c-13,-1 -26,-1 -39,-1 -30,0 -29,4 -33,-5 3,-6 -1,-2 5,-4 8,-3 50,2 68,-2l-1 -15c-8,-1 -10,0 -18,0 -8,0 -11,0 -17,-4 9,-6 23,-2 35,-5l0 -24c-8,-2 -10,-1 -18,-2 -18,0 -15,-2 -16,-5 4,-8 16,-4 34,-6l-1 -21 -37 -2c5,-13 21,-8 38,-10l0 -17c-14,-2 -28,-1 -41,-1 -34,0 -28,3 -32,-7 12,-8 50,0 74,-5l-1 -19c-14,-1 -31,2 -34,-4 0,-14 5,-4 33,-9l0 -19c-10,-3 -29,1 -37,-6l0 -5c9,-6 26,-2 38,-4 0,-14 4,-19 -8,-21 -3,-1 -12,1 -16,0 -17,-1 -7,1 -10,-6 4,-8 25,-4 34,-5 1,-29 -3,-22 -31,-22 -7,0 -45,4 -45,-6 1,-9 67,-4 76,-5 0,-16 4,-21 -10,-22 -11,-1 -19,2 -28,-4 3,-12 20,-5 38,-7l-1 -23c-15,-1 -28,4 -33,-5 3,-7 -6,-4 10,-6 4,0 13,1 16,0 12,-2 9,-8 8,-22 -18,-1 -30,5 -34,-6 3,-6 -1,-2 6,-4 9,-3 18,-1 28,-2l0 -21c-13,-1 -26,-1 -39,-1 -22,0 -29,5 -33,-5 6,-13 44,1 73,-7l-1 -76c-11,0 -12,9 -19,16l-125 125c-8,9 -18,17 -28,28l-198 199c-1,0 -1,1 -2,1l-68 68c0,1 -1,1 -1,2l-73 72c-5,5 -10,11 -15,16 -1,0 -1,1 -1,1l-14 13c-5,4 -10,9 -14,14l-14 14c-5,5 -10,9 -15,15l-206 206c-34,35 -45,42 -78,78 -3,3 -5,6 -8,8 -2,2 -1,2 -3,4l-7 6c-2,2 -1,2 -4,4 -3,4 -3,3 -7,6 -3,3 -4,4 -7,8 -6,8 -2,-2 -4,9l81 -1zm726 -509c0,80 4,377 -4,407 -59,3 -119,2 -179,2l-348 -1c-20,-29 3,-34 39,-72l19 -19c6,-8 10,-11 16,-17l260 -260c0,-1 1,-1 1,-1l158 -158c11,-12 12,-13 32,-12 3,10 6,0 6,29l0 102zm-35 373l-442 1 13 -17c1,-1 1,-1 1,-2l66 -65c0,0 1,-1 1,-1l56 -56c1,-1 1,-1 2,-2l135 -136c1,0 1,0 2,-1l17 -18c2,-1 3,-2 4,-4 1,0 1,0 1,-1l4 -4c1,0 1,-1 2,-1l68 -68c0,0 1,-1 1,-1l56 -56c9,-9 6,-8 14,-10 1,18 3,419 -1,442z"/>
   <g>
    <path class="fil1" d="M5855 1515c-32,28 -80,27 -107,-5l-10 -12c-29,-34 -35,-108 -2,-136l10 -8c62,-53 174,107 109,161zm-475 -54c-15,13 -23,20 -41,25 -7,1 -9,1 -15,1l-15 -1c-43,-7 -73,-48 -53,-97 30,-74 129,-129 158,-44 11,32 -2,88 -34,116zm197 -360c-6,-7 -11,-13 -11,-23 -1,-39 69,-35 62,3 -4,27 -36,37 -51,20zm-34 -98c-3,-10 -10,-23 -15,-34 -6,-14 -10,-24 -16,-37l-164 -364c-18,-41 -49,-108 -9,-142 10,14 121,271 130,290l64 145c10,25 21,48 32,74 10,21 13,21 -22,68zm-60 64c-24,21 -47,38 -60,60 -18,30 -19,38 -26,65 -4,13 -8,9 -28,16 -92,30 -164,80 -194,174 -12,35 -15,99 16,136 21,25 26,30 59,43 46,18 115,9 153,-24 45,-38 69,-73 82,-129 6,-29 14,-91 -11,-120 -14,-16 -11,-15 -26,-26 8,-10 15,-31 22,-45 15,-27 20,-35 43,-54 19,-17 16,9 60,12 14,0 51,-2 63,0 15,2 19,6 27,19 19,28 31,68 38,98 -10,7 -7,2 -22,15 -80,68 -31,342 159,309 72,-13 116,-83 113,-149 -4,-101 -64,-164 -150,-210 -12,-6 -26,-12 -36,-19 -10,-87 -18,-86 -80,-159 -7,-9 -17,-19 -21,-28 -5,-9 -9,-20 -12,-27l-76 -161c-8,-17 -17,-36 -25,-54 -33,-73 -66,-143 -97,-215 -15,-36 -28,-69 -43,-106 -14,-34 -31,-87 -54,-114 -23,-27 -112,49 -120,101 -5,43 148,378 168,422l78 170z"/>
    <path class="fil1" d="M5628 876c5,8 7,17 10,26 3,7 6,17 11,25l72 -110c58,-87 144,-222 203,-303 11,-14 11,-15 25,-13 4,8 6,9 5,17 -4,39 -126,212 -155,259 -37,60 -82,126 -122,187 -6,11 -8,9 -5,19l37 75c15,-13 134,-198 150,-222 15,-24 32,-50 47,-74 22,-36 123,-196 129,-224 5,-26 -9,-57 -28,-82l-17 -21c-22,-22 -46,-36 -55,-28 -25,20 -89,135 -113,175 -12,19 -183,283 -194,294z"/>
   </g>
   <path class="fil1" d="M5574 1949l210 120 205 119c27,16 33,21 33,52l0 242 0 236c0,32 -2,39 -29,55l-209 121 -205 118c-28,16 -35,19 -63,3l-209 -121 -205 -118c-27,-16 -33,-21 -33,-53l0 -241 0 -237c0,-32 2,-39 29,-55l209 -121 205 -118c28,-16 35,-18 62,-2z"/>
   <path class="fil2" d="M5580 1940l209 120 0 0 205 119 0 0c15,8 24,14 30,23 6,10 8,20 8,38l0 242 0 236c0,18 -1,29 -5,38 -5,10 -14,17 -29,26l-209 121 0 0 -205 118c-15,9 -25,14 -36,15 -11,0 -21,-3 -37,-12l-209 -121 0 0 -205 -118c-15,-9 -24,-15 -30,-24 -6,-9 -8,-20 -8,-38l0 -241 0 -237c0,-17 0,-28 5,-38 5,-10 14,-17 29,-26l209 -121 0 0 205 -118c15,-9 25,-14 36,-14 11,-1 21,3 37,12l0 0zm198 138l-209 -120 0 0c-12,-7 -19,-10 -25,-10 -6,1 -14,5 -26,12l-205 118 0 0 -209 121c-12,7 -18,12 -21,17 -3,6 -3,15 -3,29l0 237 0 241c0,14 1,21 4,27 4,5 11,9 24,17l205 118 0 0 209 121c12,7 19,9 25,9 6,0 14,-4 26,-12l205 -118 0 0 209 -121c12,-7 18,-11 21,-17 3,-5 3,-14 3,-29l0 -236 0 -242c0,-13 -1,-21 -4,-26 -4,-6 -11,-10 -24,-17l0 0 -205 -119 0 0z"/>
   <path class="fil0" d="M5574 1949l210 120 205 119c20,12 29,18 31,34 -2,13 -9,20 -27,31l-209 121 -205 118c-28,16 -35,18 -63,2l-209 -120 -205 -119c-21,-12 -29,-18 -31,-34 2,-13 8,-20 27,-31l209 -121 205 -118c28,-16 35,-18 62,-2z"/>
   <path class="fil2" d="M5580 1940l209 120 0 0 205 119c11,6 19,11 25,17 6,6 10,13 12,24l0 3c-2,9 -5,16 -11,22l0 0c-5,6 -12,11 -22,17l0 0 -209 121 0 0 -205 118 0 0c-15,9 -25,14 -36,14 -11,1 -21,-3 -37,-12l0 0 -209 -120 0 0 -205 -119 0 0c-11,-6 -19,-11 -25,-17 -6,-6 -10,-14 -12,-24l0 -3c2,-9 5,-16 11,-22l0 0c5,-6 12,-11 22,-17l0 0 209 -121 0 0 205 -118c15,-9 25,-14 36,-14 11,-1 21,3 37,12l0 0zm198 138l-209 -120 0 0c-12,-7 -19,-10 -25,-10 -6,1 -14,5 -26,12l-205 118 0 0 -209 121 0 0c-9,5 -15,9 -18,13l0 0c-3,2 -4,5 -5,9 1,5 3,8 6,11 4,5 11,9 21,14l0 0 205 119 0 0 209 120 0 0c12,7 19,10 25,10 6,-1 14,-5 26,-12l0 0 205 -118 0 0 209 -121 0 0c9,-5 14,-9 18,-13l0 0c3,-2 4,-6 5,-9 -1,-5 -3,-9 -6,-11 -4,-5 -11,-9 -21,-14l-205 -119 0 0z"/>
   <path class="fil3" d="M5574 1949l210 120 205 119c20,12 29,18 31,34 -2,13 -9,20 -27,31l-209 121 -205 118c-15,8 -23,13 -32,13l0 -567c7,0 15,4 27,11z"/>
   <path class="fil0" d="M5589 1921l390 186c44,21 54,42 44,74l-161 414 -486 -237c53,-130 108,-287 166,-411 10,-21 26,-36 47,-26z"/>
   <path class="fil2" d="M5594 1911l389 186 0 0c24,12 40,24 47,38 9,14 9,31 3,50l-1 0 -160 414 -4 10 -10 -5 -486 -237 -9 -4 3 -9c19,-45 37,-91 54,-138 37,-94 74,-191 113,-273 6,-14 15,-25 26,-31 10,-6 22,-7 35,-1l0 0zm380 205l-389 -186 0 0c-6,-3 -12,-2 -16,0 -7,4 -13,12 -17,21 -39,83 -76,179 -112,273 -18,45 -35,89 -51,129l468 228 156 -403 0 0c4,-13 4,-24 -1,-33 -5,-10 -18,-19 -38,-29l0 0z"/>
   <path class="fil0" d="M5266 2102l0 95 0 98 138 79 205 118c15,9 24,14 33,14l0 183 67 38c15,9 24,14 34,14l0 -363c0,-33 -7,-48 -32,-64l-207 -119 -209 -121c-25,-15 -29,0 -29,28z"/>
   <path class="fil2" d="M5277 2102l0 95 0 92 132 76 0 0 205 119c7,4 13,7 18,9 4,2 7,2 10,2l11 0 0 11 0 177 61 35c7,4 13,8 18,10l0 0 0 -350c0,-15 -1,-26 -5,-34 -4,-8 -11,-14 -22,-21l0 0 -206 -119 0 0 -209 -121c-7,-4 -10,-5 -11,-5l0 0c-2,3 -2,12 -2,24zm-21 95l0 -95c0,-16 1,-29 7,-36l0 0c8,-10 19,-12 37,-1l209 121 0 0 207 119 1 0c14,9 23,18 28,30 6,11 8,25 8,43l0 363 0 10 -10 0c-6,0 -12,-1 -19,-4 -5,-2 -12,-6 -20,-11l-67 -38 -5 -3 0 -6 0 -174c-3,-1 -5,-2 -8,-3 -6,-2 -12,-6 -20,-11l-205 -118 0 0 -138 -79 -5 -3 0 -6 0 -98z"/>
   <path class="fil0" d="M5181 2087l0 139 0 46 178 102 205 118c15,9 23,14 33,14l0 235 27 16c15,8 24,13 34,13l0 -363c0,-33 -7,-48 -32,-63l-207 -120 -238 -137z"/>
   <path class="fil2" d="M5192 2105l0 121 0 40 172 99 0 0 205 119c7,4 12,7 17,9 4,2 8,2 11,2l10 0 0 11 0 229 23 13 0 0c7,4 12,7 17,9l0 0 0 -350c0,-15 -1,-25 -5,-33 -4,-8 -11,-15 -21,-22l-207 -119 -222 -128zm-21 121l0 -139 0 -18 15 9 239 137 206 120 1 0c14,9 23,18 29,29 5,12 7,25 7,43l0 363 0 10 -10 0c-6,0 -12,-1 -19,-4 -5,-2 -12,-6 -20,-10l0 0 -27 -16 -5 -3 0 -6 0 -226c-3,-1 -6,-2 -9,-3 -5,-2 -12,-6 -20,-11l-205 -118 0 0 -177 -102 -5 -3 0 -6 0 -46z"/>
   <path class="fil0" d="M5085 2090l0 154c4,3 8,6 14,9l209 121 205 118c15,9 24,14 34,14l0 289c5,2 10,3 14,3l0 -363c0,-36 -8,-50 -39,-68l-153 -88 0 -42c0,-34 -14,-49 -45,-68l-208 -120c-31,-15 -31,5 -31,41z"/>
   <path class="fil2" d="M5095 2090l0 149c1,0 1,1 2,1 2,1 5,3 7,4l0 0 209 121 0 0 205 119c7,4 13,7 18,9 4,2 7,2 10,2l5 0 0 -60c0,-16 -2,-27 -7,-36 -4,-8 -13,-15 -27,-23l-153 -88 -5 -4 0 -5 0 -42c0,-15 -3,-25 -9,-34 -6,-9 -17,-16 -31,-25l-208 -120c-9,-4 -12,-5 -13,-3 -3,5 -3,18 -3,35zm-20 154l0 -154c0,-20 0,-35 5,-45 7,-13 18,-16 40,-5l1 0 208 121c17,9 29,18 38,30 8,12 12,26 12,46l0 36 149 85c17,10 27,19 34,31 7,12 10,26 10,46l0 363 0 10 -10 0c-4,0 -7,0 -10,-1 -3,-1 -6,-2 -9,-3l-7 -3 0 -6 0 -280c-2,-1 -5,-2 -8,-3 -6,-2 -12,-6 -20,-11l-205 -118 0 0 -209 -121 0 0c-3,-1 -6,-3 -8,-5 -3,-1 -5,-3 -7,-5l-4 -3 0 -5z"/>
   <path class="fil0" d="M6020 2221c1,5 2,12 2,19l0 242 0 236c0,32 -2,39 -29,55l-209 121 -205 118c-16,9 -24,14 -34,13l0 -520c10,0 18,-4 34,-13l205 -118 209 -121c18,-11 25,-18 27,-31l0 -1 0 0 0 0z"/>
   <path class="fil2" d="M6031 2220c0,3 0,6 1,9 0,4 0,7 0,11l0 242 0 236c0,18 -1,29 -5,38 -5,10 -14,17 -29,26l-209 121 0 0 -205 118c-8,5 -15,8 -20,11 -7,3 -13,4 -19,4l-10 0 0 -11 0 -520 0 -10 10 0c3,0 7,-1 11,-3 5,-2 10,-5 17,-9l0 0 205 -118 0 0 209 -121 0 0c9,-5 14,-9 18,-13l0 0c3,-3 4,-6 5,-11l10 1 11 -1 0 0 0 0zm-20 262l0 -229c-4,3 -8,6 -13,9l0 0 -209 121 0 0 -205 118 0 0c-8,4 -15,8 -20,10 -3,2 -6,3 -9,3l0 499 1 0c5,-2 10,-6 17,-10l205 -118 0 0 209 -121c12,-7 18,-11 21,-17 3,-5 3,-14 3,-29l0 -236z"/>
   <g>
    <path class="fil1" d="M6836 3948l0 -1081c0,-55 43,-98 97,-98l472 0c55,0 98,43 98,98l0 1081c0,54 -43,98 -98,98l-472 0c-54,0 -97,-44 -97,-98zm-52 -1093l0 1104c0,37 24,75 43,95 22,21 56,43 95,43l495 0c39,0 73,-22 94,-43 20,-20 44,-58 44,-95l0 -1104c0,-68 -70,-138 -138,-138l-495 0c-69,0 -138,70 -138,138z"/>
    <path class="fil1" d="M6899 2890l541 0 0 931 -541 0 0 -931zm-29 -12l0 949c0,14 10,23 23,23l552 0c14,0 23,-9 23,-23l0 -949c0,-13 -4,-17 -17,-17l-564 0c-13,0 -17,4 -17,17z"/>
    <path class="fil1" d="M7123 3948c0,-80 92,-53 92,-17 0,94 -92,69 -92,17zm-29 -12c0,79 73,107 124,66 50,-40 29,-135 -54,-135 -35,0 -70,35 -70,69z"/>
    <path class="fil1" d="M7106 2826l127 0c17,0 15,-6 17,-23l-161 0c1,17 0,23 17,23z"/>
   </g>
   <g>
    <path class="fil1" d="M8210 502l73 0 -224 489 950 0 -220 -489 72 0c7,0 8,-1 12,7l289 533c56,109 35,145 -54,145l-566 0 -13 0 -566 0c-88,0 -110,-36 -53,-145l288 -533c4,-8 5,-7 12,-7z"/>
    <path class="fil1" d="M8210 436l319 0 13 0 319 0c7,0 8,-1 12,3l289 241c56,49 35,65 -54,65l-566 0 -13 0 -566 0c-88,0 -110,-16 -53,-65l288 -241c4,-4 5,-3 12,-3z"/>
    <path class="fil1" d="M9179 714c31,34 5,46 -72,46l-565 0 -13 0 -565 0c-76,0 -103,-12 -72,-46 -7,21 22,29 82,29l555 0 13 0 555 0c61,0 89,-8 82,-29z"/>
   </g>
   <g>
    <path class="fil1" d="M5806 4368c17,-10 346,-4 412,-4l101 -1c23,0 21,-4 28,9 0,17 -2,12 -48,12l-476 0c-23,-3 -15,3 -17,-16zm-64 -908c10,0 18,8 18,18 0,10 -8,18 -18,18 -9,0 -17,-8 -17,-18 0,-10 8,-18 17,-18zm-604 899c7,0 12,6 12,13 0,7 -5,12 -12,12 -7,0 -13,-5 -13,-12 0,-7 6,-13 13,-13zm-39 0c7,0 13,6 13,13 0,7 -6,12 -13,12 -7,0 -13,-5 -13,-12 0,-7 6,-13 13,-13zm-39 0c7,0 13,6 13,13 0,7 -6,12 -13,12 -7,0 -12,-5 -12,-12 0,-7 5,-13 12,-13zm280 25c-14,0 -22,0 -27,-1l-7 -4c0,-1 0,-1 -1,-2l1 -9c12,-7 13,-5 33,-5 17,0 18,-2 29,5 -1,22 2,16 -28,16zm-324 -69c-37,42 -9,108 74,100 33,-1 67,0 101,0l1218 0c101,6 87,-91 36,-108l-128 -43c-10,-4 -20,-6 -30,-6l-63 0 0 -3 92 -1 -3 -798c-8,-7 -8,-7 -33,-7 -163,1 -1084,-4 -1110,2l-1 802 92 -1 0 7 -90 2c-21,2 -124,43 -155,54zm1240 -501l0 378 -3 1 -1025 -1 0 -685 1030 1 -2 306zm-979 547l0 21 -53 2c-14,-5 -5,1 -11,-12 10,-16 5,-7 64,-9l0 -2zm-48 -57l-116 0c54,-28 172,-19 241,-19l715 0c31,0 31,3 45,18l-328 1 -557 0zm902 -18c67,-3 182,-6 237,18l-189 0c-30,1 -34,-1 -48,-18zm-30 -26l-705 -1 1 -9 704 1 0 9z"/>
    <circle class="fil1 str0" cx="5742" cy="3478" r="18"/>
   </g>
   <g>
    <path class="fil1" d="M8896 3379c7,3 10,6 15,10l12 17c-7,-4 -24,-18 -27,-27 -6,-3 -23,-16 -26,-26 -6,-3 -23,-16 -26,-26 -9,-4 -23,-16 -25,-25 7,3 10,6 15,10 7,6 7,6 10,15 8,3 10,7 15,11 7,6 8,5 11,15 7,3 10,6 15,11 7,6 8,5 11,15z"/>
    <path class="fil1" d="M8533 3497c-14,-8 -13,-4 -16,-16 4,2 5,1 8,4 8,7 1,0 8,12z"/>
    <path class="fil1" d="M8671 3635c6,3 23,16 26,26 -8,-3 -10,-7 -16,-11 -7,-6 -7,-5 -10,-15z"/>
    <path class="fil1" d="M8645 3609c6,3 23,17 26,26 -7,-3 -10,-6 -15,-11 -7,-6 -8,-5 -11,-15z"/>
    <path class="fil1" d="M8620 3584c6,3 22,16 25,25 -7,-2 -10,-6 -15,-10 -7,-6 -7,-5 -10,-15z"/>
    <path class="fil1" d="M8594 3558c6,3 23,16 26,26 -8,-3 -10,-6 -16,-11 -7,-6 -7,-5 -10,-15z"/>
    <path class="fil1" d="M8568 3532c6,3 23,17 26,26 -8,-3 -10,-6 -15,-10 -7,-6 -8,-6 -11,-16z"/>
    <path class="fil1" d="M8538 3502c9,6 27,22 30,30 -8,-3 -10,-6 -17,-12 -7,-6 -9,-6 -13,-18z"/>
    <path class="fil1" d="M8538 3497l0 5c-6,0 0,6 -5,-1 3,-5 -2,-5 5,-4z"/>
    <path class="fil1" d="M8552 3485c-4,9 -11,11 -11,11 -1,-1 -2,1 -3,1 5,-9 -1,-2 6,-8 0,-1 3,-2 4,-3 0,0 1,0 2,-1 0,-1 1,0 2,0z"/>
    <path class="fil1" d="M8870 3645c3,-9 26,-30 35,-39 8,-8 9,-9 19,-17l17 -18c5,-5 5,-4 10,-9 16,-15 52,-54 65,-61 -11,23 -23,26 -34,38l-31 30c-19,22 -14,9 -34,35 -1,1 -1,2 -2,2 0,1 -1,2 -2,2l-22 23c-19,22 -9,18 -21,14z"/>
    <path class="fil4" d="M8862 3650c1,-1 2,-2 2,-2 6,-4 -2,0 6,-3 -2,11 -4,11 -12,16"/>
    <path class="fil1" d="M8748 3712c-7,-3 -10,-6 -15,-11 -7,-6 -8,-5 -11,-15 -7,-3 -10,-6 -15,-10 -7,-6 -7,-5 -10,-15 6,3 22,16 25,25 6,3 23,16 26,26z"/>
    <path class="fil4" d="M8758 3725c-8,-6 -7,-5 -10,-13 9,4 7,3 13,11"/>
    <path class="fil1" d="M8652 3196c-30,1 -19,22 -22,90l-172 0 -1 -50 -129 0 1 51 -8 0 -21 1 0 -29 -118 1 0 25c-45,6 -67,12 -87,41 -18,26 -18,74 -15,110l29 0 3 -1c2,1 312,5 331,1 8,-1 5,1 9,-4l7 -7c5,-3 5,-2 8,-7 21,-23 47,-43 81,-57 85,-36 206,-13 265,62 4,6 6,12 16,14l225 -1c6,-63 2,-117 -56,-143 -21,-10 -37,-5 -60,-8l-1 -67c-1,-20 -16,-25 -47,-25l-238 3z"/>
    <polygon class="fil1" points="8811,3222 8824,3222 8902,3222 8903,3231 8904,3286 8799,3286 8667,3286 8667,3222 8730,3222 8743,3222 "/>
    <path class="fil1" d="M8840 3692c-6,11 -12,20 -19,29 -12,16 -32,35 -49,47 -40,28 -90,46 -152,42 -177,-13 -259,-180 -195,-333l-345 0c-1,58 -8,300 8,337 22,53 70,54 114,54l769 0c31,-3 41,-15 56,-26 4,-5 8,-9 13,-15 3,-5 4,-8 8,-12l5 -25c4,-10 6,-296 2,-315l-206 1 2 5c8,29 17,45 20,80 3,45 -8,93 -31,131z"/>
    <path class="fil1" d="M8821 3518c-12,-38 -32,-64 -56,-85 -31,-27 -79,-46 -119,-49 -64,0 -112,26 -144,56 -35,33 -56,80 -58,147l1 7c16,140 158,213 275,157 87,-42 131,-139 101,-233z"/>
    <path class="fil1" d="M8830 3794l-31 -27c-11,-11 -3,1 -8,-13 13,6 32,27 39,40z"/>
   </g>
   <path class="fil1" d="M6585 566c-21,14 -35,27 -47,49 -21,39 -18,102 6,138 28,41 54,52 94,63 4,1 5,2 9,3 4,0 4,0 9,0 3,1 5,1 8,2 6,0 12,0 18,0l107 3c59,2 118,4 178,4 31,0 122,6 143,3 -4,-11 4,-33 0,-44 -4,-2 -27,-2 -33,-2l-33 -1c-76,-2 -157,-5 -232,-6 -11,0 -22,0 -33,-1 -38,-1 -99,2 -132,-6 -5,-1 -11,-3 -16,-5 -5,-2 -11,-5 -16,-7 -36,-19 -46,-57 -44,-92 1,-8 3,-16 5,-23 2,-4 2,-5 4,-9 13,-25 43,-39 69,-45 21,-5 40,-3 61,-2 8,1 14,1 21,1 34,0 68,4 102,4l82 2c7,0 13,0 20,1l142 5c29,0 125,2 143,5 36,7 53,33 48,68 -1,7 -2,14 -6,21 -14,33 -52,31 -82,30l-212 -6c-5,0 -9,0 -15,0l-98 -2c-22,-1 -81,0 -98,-5 -17,-6 -37,-13 -35,-35 2,-21 33,-29 49,-29l257 9c3,-7 2,-37 2,-46 -35,0 -94,-4 -129,-5l-131 -5c-7,0 -18,2 -26,4 -13,3 -31,10 -42,20 -28,25 -34,65 -18,89 12,17 21,26 39,35 16,8 35,12 53,12 66,0 132,5 199,5l125 3c26,2 94,4 118,2 35,-2 68,-21 84,-52 12,-22 14,-47 12,-71 -1,-14 -6,-27 -13,-39l-5 -8c-11,-14 -25,-25 -41,-32 -9,-5 -21,-8 -31,-9l-4 -1c0,0 0,0 -1,0l-6 0c-8,0 -14,-1 -22,-1 -52,0 -104,-5 -156,-5l-267 -9c-30,-1 -58,-2 -89,-3 -16,-1 -28,1 -45,5 -15,4 -32,9 -49,20z"/>
   <path class="fil1" d="M8000 1937l216 1c49,0 73,-21 73,-71l0 -218c127,0 254,0 381,0 24,0 71,-4 90,5 22,11 33,30 33,62l0 859c0,34 3,60 -17,80 -20,20 -44,17 -78,17l-476 0c-33,0 -166,5 -187,-5 -22,-9 -35,-27 -35,-60 0,-221 -3,-451 0,-670zm137 225l520 0 0 -39 -520 -1 0 40zm0 -106l520 0 -1 -40 -519 0 0 40zm0 212l519 0 1 -39 -520 -1 0 40zm0 212l520 0 -1 -40 -519 0 0 40zm0 -106l519 0 1 -40 -520 0 0 40zm-94 338l712 0 8 -3c36,-13 63,-38 69,-79 4,-21 1,-729 1,-787 0,-37 5,-124 -1,-155 -12,-62 -61,-69 -79,-79l-513 0c-6,10 -34,35 -44,46 -73,73 -158,160 -230,229 -11,10 -7,20 -7,39l0 505c0,60 -2,124 0,183 2,32 9,49 25,68 24,27 41,25 59,33z"/>
   <path class="fil1" d="M8196 4433c-17,14 -341,-2 -359,-13 11,-8 221,5 265,6l73 2c2,0 10,0 12,1 7,2 7,2 9,4zm1200 -85l0 22c30,-6 44,-16 0,-22zm-477 78c41,-2 83,-4 123,-7 20,-2 42,-4 61,-6 36,-4 52,-3 52,-17l1 -67c0,-14 2,-18 -13,-20 -226,-27 -458,-23 -686,-20l1 139c154,1 306,4 461,-2zm-1107 -121c-39,-4 -81,19 -80,54 1,33 45,58 81,52l-1 -106zm1578 42l-220 -35 0 91 221 -31 -1 -25zm-1567 -45c-5,140 -5,132 66,139 85,8 299,27 375,8 20,-6 24,-15 35,-18 15,-4 101,4 146,-5l0 -137c-150,-7 -319,1 -471,6 -25,1 -51,3 -78,4 -25,1 -45,2 -73,3z"/>
  </g>
 </g>
</svg>
