<?xml version="1.0" encoding="UTF-8"?>
<!DOCTYPE svg PUBLIC "-//W3C//DTD SVG 1.1//EN" "http://www.w3.org/Graphics/SVG/1.1/DTD/svg11.dtd">
<!-- Creator: CorelDRAW X7 -->
<svg xmlns="http://www.w3.org/2000/svg" xml:space="preserve" width="1.01219in" height="0.503453in" version="1.1" style="shape-rendering:geometricPrecision; text-rendering:geometricPrecision; image-rendering:optimizeQuality; fill-rule:evenodd; clip-rule:evenodd"
viewBox="0 0 335 167"
 xmlns:xlink="http://www.w3.org/1999/xlink">
 <defs>
  <style type="text/css">
   <![CDATA[
    .fil0 {fill:white}
   ]]>
  </style>
 </defs>
 <g id="Layer_x0020_1">
  <metadata id="CorelCorpID_0Corel-Layer"/>
  <path class="fil0" d="M34 75l96 0 0 6 -94 0c-16,0 -29,13 -29,29l0 21c0,16 13,30 29,30l263 0c16,0 29,-14 29,-30l0 -21c0,-16 -13,-29 -29,-29l-94 0 0 -6 96 0c6,0 11,1 16,4l-27 -59 0 0c-4,-8 -13,-15 -23,-15l-199 0c-10,0 -19,6 -23,15l0 0 -27 59c4,-3 10,-4 16,-4zm301 33l0 25c0,18 -15,34 -34,34l-267 0c-19,0 -34,-16 -34,-34l0 -25c0,-13 32,-76 39,-92l0 0c4,-10 14,-16 24,-16l209 0c10,0 20,7 24,16l0 0c7,16 39,79 39,92z"/>
  <polygon class="fil0" points="167,17 202,43 236,70 200,70 200,145 135,145 135,70 99,70 133,43 "/>
 </g>
</svg>
