<?xml version="1.0" encoding="UTF-8"?>
<!DOCTYPE svg PUBLIC "-//W3C//DTD SVG 1.1//EN" "http://www.w3.org/Graphics/SVG/1.1/DTD/svg11.dtd">
<!-- Creator: CorelDRAW X7 -->
<svg xmlns="http://www.w3.org/2000/svg" xml:space="preserve" width="1.04389in" height="0.834307in" version="1.1" style="shape-rendering:geometricPrecision; text-rendering:geometricPrecision; image-rendering:optimizeQuality; fill-rule:evenodd; clip-rule:evenodd"
viewBox="0 0 234 187"
 xmlns:xlink="http://www.w3.org/1999/xlink">
 <defs>
  <style type="text/css">
   <![CDATA[
    .fil1 {fill:white}
    .fil0 {fill:white;fill-rule:nonzero}
   ]]>
  </style>
 </defs>
 <g id="Layer_x0020_1">
  <metadata id="CorelCorpID_0Corel-Layer"/>
  <g id="_292711584">
   <path class="fil0" d="M33 110l18 0c-1,2 -2,3 -2,5l-16 0c-2,0 -4,1 -5,3 -2,2 -3,5 -4,8l-18 47c-1,1 -1,1 -1,2 0,1 1,3 2,4 1,1 2,2 4,3 1,0 2,0 3,0l206 0c1,0 2,0 3,0 2,-1 4,-2 5,-3 1,-1 1,-3 1,-4 0,-1 0,-1 0,-2l-19 -47c-1,-3 -2,-6 -3,-8l0 0c-2,-2 -3,-3 -5,-3l-14 0c-1,-2 -1,-3 -2,-5l16 0c4,0 7,2 9,5l0 0c2,2 3,6 4,9l19 48c0,1 0,2 0,3 0,3 -1,5 -2,7 -2,2 -4,3 -7,4 -1,1 -3,1 -5,1l-206 0c-2,0 -3,0 -5,-1 -2,-1 -4,-2 -6,-4 -2,-2 -3,-4 -3,-7 0,-1 0,-2 1,-3l18 -48c1,-3 3,-7 5,-9 2,-3 5,-5 9,-5z"/>
   <path class="fil1" d="M70 60c-3,25 -19,52 -20,67 0,24 21,39 49,42l1 -3c-21,-12 -7,-34 0,-50 3,5 3,9 9,13 10,-12 14,-19 17,-34 12,22 -4,33 8,46 0,-8 3,-15 7,-20l1 8c0,8 4,11 6,15 5,10 -2,15 -6,23 23,-5 42,-20 42,-43 0,-34 -28,-34 -14,-79 -17,5 -28,14 -29,31 -21,-10 -27,-55 -19,-76 -16,3 -30,21 -33,40 -3,19 13,44 1,58 0,-13 -1,-25 -20,-38z"/>
  </g>
 </g>
</svg>
