<?xml version="1.0" encoding="UTF-8"?>
<!DOCTYPE svg PUBLIC "-//W3C//DTD SVG 1.1//EN" "http://www.w3.org/Graphics/SVG/1.1/DTD/svg11.dtd">
<!-- Creator: CorelDRAW X7 -->
<svg xmlns="http://www.w3.org/2000/svg" xml:space="preserve" width="1.01219in" height="0.503453in" version="1.1" style="shape-rendering:geometricPrecision; text-rendering:geometricPrecision; image-rendering:optimizeQuality; fill-rule:evenodd; clip-rule:evenodd"
viewBox="0 0 148 73"
 xmlns:xlink="http://www.w3.org/1999/xlink">
 <defs>
  <style type="text/css">
   <![CDATA[
    .fil0 {fill:white}
   ]]>
  </style>
 </defs>
 <g id="Layer_x0020_1">
  <metadata id="CorelCorpID_0Corel-Layer"/>
  <path class="fil0" d="M15 33l42 0 0 3 -41 0c-7,0 -13,5 -13,12l0 10c0,7 6,13 13,13l116 0c7,0 13,-6 13,-13l0 -10c0,-7 -6,-12 -13,-12l-42 0 0 -3 43 0c2,0 5,1 7,2l-12 -26 0 0c-2,-4 -6,-7 -10,-7l-88 0c-5,0 -8,3 -10,7l0 0 -12 26c2,-1 4,-2 7,-2zm133 15l0 11c0,8 -7,14 -15,14l-118 0c-8,0 -15,-6 -15,-14l0 -11c0,-6 14,-34 17,-41l0 0c2,-4 6,-7 11,-7l92 0c5,0 9,3 10,7l0 0c4,7 18,35 18,41z"/>
  <polygon class="fil0" points="74,65 89,53 104,42 88,42 88,9 59,9 59,42 44,42 59,53 "/>
 </g>
</svg>
